<mxfile host="app.diagrams.net" modified="2024-05-20T18:28:52.272Z" agent="Mozilla/5.0 (Windows NT 10.0; Win64; x64) AppleWebKit/537.36 (KHTML, like Gecko) Chrome/125.0.0.0 Safari/537.36" etag="GqAOrXpX4xRw09WkpzZw" version="24.4.4" type="device">
  <diagram name="Page-1" id="5OpmpQUrti5nmxgJVFMN">
    <mxGraphModel dx="2284" dy="1849" grid="1" gridSize="10" guides="1" tooltips="1" connect="1" arrows="1" fold="1" page="1" pageScale="1" pageWidth="850" pageHeight="1100" math="0" shadow="0">
      <root>
        <mxCell id="0" />
        <mxCell id="1" parent="0" />
        <mxCell id="GnCX_SDy-tHlvZ9ctZLE-1" style="edgeStyle=orthogonalEdgeStyle;rounded=0;orthogonalLoop=1;jettySize=auto;html=1;exitX=0.5;exitY=1;exitDx=0;exitDy=0;entryX=0.5;entryY=0;entryDx=0;entryDy=0;endArrow=none;endFill=0;strokeColor=#B20000;labelBackgroundColor=none;fontColor=default;fillColor=#e51400;startArrow=ERoneToMany;startFill=0;" edge="1" parent="1" source="GnCX_SDy-tHlvZ9ctZLE-2" target="GnCX_SDy-tHlvZ9ctZLE-3">
          <mxGeometry relative="1" as="geometry" />
        </mxCell>
        <mxCell id="GnCX_SDy-tHlvZ9ctZLE-2" value="Movie" style="whiteSpace=wrap;html=1;align=center;strokeColor=#B20000;labelBackgroundColor=none;fillColor=#e51400;fontColor=#ffffff;" vertex="1" parent="1">
          <mxGeometry x="520" y="458" width="100" height="40" as="geometry" />
        </mxCell>
        <mxCell id="GnCX_SDy-tHlvZ9ctZLE-3" value="Runs in" style="shape=rhombus;perimeter=rhombusPerimeter;whiteSpace=wrap;html=1;align=center;strokeColor=#FFFFFF;labelBackgroundColor=none;fillColor=#182E3E;fontColor=#FFFFFF;" vertex="1" parent="1">
          <mxGeometry x="510" y="638" width="120" height="60" as="geometry" />
        </mxCell>
        <mxCell id="GnCX_SDy-tHlvZ9ctZLE-4" style="rounded=0;orthogonalLoop=1;jettySize=auto;html=1;endArrow=none;endFill=0;entryX=0.9;entryY=0;entryDx=0;entryDy=0;entryPerimeter=0;strokeColor=#B20000;labelBackgroundColor=none;fontColor=default;fillColor=#e51400;exitX=0.343;exitY=0.994;exitDx=0;exitDy=0;exitPerimeter=0;edgeStyle=orthogonalEdgeStyle;" edge="1" parent="1">
          <mxGeometry relative="1" as="geometry">
            <mxPoint x="611" y="458" as="targetPoint" />
            <mxPoint x="625.3000000000002" y="379.6880000000001" as="sourcePoint" />
          </mxGeometry>
        </mxCell>
        <mxCell id="GnCX_SDy-tHlvZ9ctZLE-5" style="edgeStyle=orthogonalEdgeStyle;rounded=0;orthogonalLoop=1;jettySize=auto;html=1;exitX=0;exitY=0.5;exitDx=0;exitDy=0;entryX=0.75;entryY=1;entryDx=0;entryDy=0;endArrow=none;endFill=0;strokeColor=#B20000;labelBackgroundColor=none;fontColor=default;fillColor=#e51400;" edge="1" parent="1" source="GnCX_SDy-tHlvZ9ctZLE-6" target="GnCX_SDy-tHlvZ9ctZLE-2">
          <mxGeometry relative="1" as="geometry" />
        </mxCell>
        <mxCell id="GnCX_SDy-tHlvZ9ctZLE-6" value="Movie_Tiltle" style="ellipse;whiteSpace=wrap;html=1;align=center;strokeColor=#B20000;labelBackgroundColor=none;fillColor=#e51400;fontColor=#ffffff;" vertex="1" parent="1">
          <mxGeometry x="620" y="518" width="100" height="40" as="geometry" />
        </mxCell>
        <mxCell id="GnCX_SDy-tHlvZ9ctZLE-7" style="rounded=0;orthogonalLoop=1;jettySize=auto;html=1;exitX=0;exitY=0.5;exitDx=0;exitDy=0;entryX=1;entryY=0.5;entryDx=0;entryDy=0;endArrow=none;endFill=0;strokeColor=#A50040;labelBackgroundColor=none;fontColor=default;fillColor=#d80073;" edge="1" parent="1" source="GnCX_SDy-tHlvZ9ctZLE-8" target="GnCX_SDy-tHlvZ9ctZLE-43">
          <mxGeometry relative="1" as="geometry">
            <Array as="points">
              <mxPoint x="470" y="818" />
            </Array>
          </mxGeometry>
        </mxCell>
        <mxCell id="GnCX_SDy-tHlvZ9ctZLE-8" value="Cinema" style="whiteSpace=wrap;html=1;align=center;strokeColor=#A50040;labelBackgroundColor=none;fillColor=#d80073;fontColor=#ffffff;" vertex="1" parent="1">
          <mxGeometry x="520" y="918" width="100" height="40" as="geometry" />
        </mxCell>
        <mxCell id="GnCX_SDy-tHlvZ9ctZLE-9" style="edgeStyle=orthogonalEdgeStyle;rounded=0;orthogonalLoop=1;jettySize=auto;html=1;endArrow=ERoneToMany;endFill=0;strokeColor=#23445D;labelBackgroundColor=none;fontColor=default;" edge="1" parent="1" source="GnCX_SDy-tHlvZ9ctZLE-11" target="GnCX_SDy-tHlvZ9ctZLE-15">
          <mxGeometry relative="1" as="geometry" />
        </mxCell>
        <mxCell id="GnCX_SDy-tHlvZ9ctZLE-10" style="edgeStyle=orthogonalEdgeStyle;rounded=0;orthogonalLoop=1;jettySize=auto;html=1;exitX=0;exitY=0.5;exitDx=0;exitDy=0;entryX=1;entryY=0.5;entryDx=0;entryDy=0;endArrow=ERoneToMany;endFill=0;strokeColor=#23445D;labelBackgroundColor=none;fontColor=default;" edge="1" parent="1" source="GnCX_SDy-tHlvZ9ctZLE-11" target="GnCX_SDy-tHlvZ9ctZLE-57">
          <mxGeometry relative="1" as="geometry" />
        </mxCell>
        <mxCell id="GnCX_SDy-tHlvZ9ctZLE-11" value="Has" style="shape=rhombus;perimeter=rhombusPerimeter;whiteSpace=wrap;html=1;align=center;strokeColor=#FFFFFF;labelBackgroundColor=none;fillColor=#182E3E;fontColor=#FFFFFF;" vertex="1" parent="1">
          <mxGeometry x="505" y="1018" width="130" height="60" as="geometry" />
        </mxCell>
        <mxCell id="GnCX_SDy-tHlvZ9ctZLE-12" style="edgeStyle=orthogonalEdgeStyle;rounded=0;orthogonalLoop=1;jettySize=auto;html=1;exitX=0.5;exitY=1;exitDx=0;exitDy=0;entryX=0.5;entryY=0;entryDx=0;entryDy=0;endArrow=none;endFill=0;strokeColor=#36393d;labelBackgroundColor=none;fontColor=default;fillColor=#cdeb8b;" edge="1" parent="1" source="GnCX_SDy-tHlvZ9ctZLE-15" target="GnCX_SDy-tHlvZ9ctZLE-17">
          <mxGeometry relative="1" as="geometry" />
        </mxCell>
        <mxCell id="GnCX_SDy-tHlvZ9ctZLE-13" style="rounded=0;orthogonalLoop=1;jettySize=auto;html=1;exitX=1;exitY=0.5;exitDx=0;exitDy=0;endArrow=none;endFill=0;strokeColor=#A50040;labelBackgroundColor=none;fontColor=default;fillColor=#d80073;entryX=0.5;entryY=0;entryDx=0;entryDy=0;" edge="1" parent="1">
          <mxGeometry relative="1" as="geometry">
            <mxPoint x="729" y="942" as="targetPoint" />
            <Array as="points">
              <mxPoint x="730" y="918.48" />
            </Array>
            <mxPoint x="615" y="918.48" as="sourcePoint" />
          </mxGeometry>
        </mxCell>
        <mxCell id="GnCX_SDy-tHlvZ9ctZLE-14" style="edgeStyle=orthogonalEdgeStyle;rounded=0;orthogonalLoop=1;jettySize=auto;html=1;endArrow=none;endFill=0;entryX=0.5;entryY=0;entryDx=0;entryDy=0;strokeColor=#36393d;labelBackgroundColor=none;fontColor=default;fillColor=#cdeb8b;" edge="1" parent="1" source="GnCX_SDy-tHlvZ9ctZLE-15" target="GnCX_SDy-tHlvZ9ctZLE-16">
          <mxGeometry relative="1" as="geometry">
            <mxPoint x="460" y="1018" as="targetPoint" />
          </mxGeometry>
        </mxCell>
        <mxCell id="GnCX_SDy-tHlvZ9ctZLE-15" value="Screen" style="whiteSpace=wrap;html=1;align=center;strokeColor=#36393d;labelBackgroundColor=none;fillColor=#cdeb8b;" vertex="1" parent="1">
          <mxGeometry x="520" y="1168" width="100" height="40" as="geometry" />
        </mxCell>
        <mxCell id="GnCX_SDy-tHlvZ9ctZLE-16" value="Screen_ID" style="ellipse;whiteSpace=wrap;html=1;align=center;fontStyle=4;strokeColor=#36393d;labelBackgroundColor=none;fillColor=#cdeb8b;" vertex="1" parent="1">
          <mxGeometry x="350" y="1228" width="100" height="40" as="geometry" />
        </mxCell>
        <mxCell id="GnCX_SDy-tHlvZ9ctZLE-17" value="Screen_No" style="ellipse;whiteSpace=wrap;html=1;align=center;strokeColor=#36393d;labelBackgroundColor=none;fillColor=#cdeb8b;" vertex="1" parent="1">
          <mxGeometry x="520" y="1318" width="100" height="40" as="geometry" />
        </mxCell>
        <mxCell id="GnCX_SDy-tHlvZ9ctZLE-18" value="Has" style="shape=rhombus;perimeter=rhombusPerimeter;whiteSpace=wrap;html=1;align=center;strokeColor=#FFFFFF;labelBackgroundColor=none;fillColor=#182E3E;fontColor=#FFFFFF;" vertex="1" parent="1">
          <mxGeometry x="895" y="458" width="120" height="60" as="geometry" />
        </mxCell>
        <mxCell id="GnCX_SDy-tHlvZ9ctZLE-19" value="Schedule" style="whiteSpace=wrap;html=1;align=center;strokeColor=#36393d;labelBackgroundColor=none;fillColor=#ffcc99;" vertex="1" parent="1">
          <mxGeometry x="1030" y="578" width="100" height="40" as="geometry" />
        </mxCell>
        <mxCell id="GnCX_SDy-tHlvZ9ctZLE-20" style="edgeStyle=orthogonalEdgeStyle;rounded=0;orthogonalLoop=1;jettySize=auto;html=1;exitX=0.5;exitY=0;exitDx=0;exitDy=0;entryX=0.25;entryY=1;entryDx=0;entryDy=0;endArrow=none;endFill=0;strokeColor=#36393d;labelBackgroundColor=none;fontColor=default;fillColor=#ffcc99;" edge="1" parent="1" source="GnCX_SDy-tHlvZ9ctZLE-21" target="GnCX_SDy-tHlvZ9ctZLE-19">
          <mxGeometry relative="1" as="geometry" />
        </mxCell>
        <mxCell id="GnCX_SDy-tHlvZ9ctZLE-21" value="Show_Date" style="ellipse;whiteSpace=wrap;html=1;align=center;strokeColor=#36393d;labelBackgroundColor=none;fillColor=#ffcc99;" vertex="1" parent="1">
          <mxGeometry x="920" y="668" width="100" height="40" as="geometry" />
        </mxCell>
        <mxCell id="GnCX_SDy-tHlvZ9ctZLE-22" style="edgeStyle=orthogonalEdgeStyle;rounded=0;orthogonalLoop=1;jettySize=auto;html=1;exitX=0.5;exitY=0;exitDx=0;exitDy=0;endArrow=none;endFill=0;entryX=1;entryY=0.75;entryDx=0;entryDy=0;strokeColor=#36393d;labelBackgroundColor=none;fontColor=default;fillColor=#ffcc99;" edge="1" parent="1" source="GnCX_SDy-tHlvZ9ctZLE-23" target="GnCX_SDy-tHlvZ9ctZLE-19">
          <mxGeometry relative="1" as="geometry">
            <mxPoint x="1150" y="538" as="targetPoint" />
            <Array as="points">
              <mxPoint x="1170" y="618" />
              <mxPoint x="1130" y="618" />
            </Array>
          </mxGeometry>
        </mxCell>
        <mxCell id="GnCX_SDy-tHlvZ9ctZLE-23" value="Show_Time" style="ellipse;whiteSpace=wrap;html=1;align=center;strokeColor=#36393d;labelBackgroundColor=none;fillColor=#ffcc99;" vertex="1" parent="1">
          <mxGeometry x="1120" y="678" width="100" height="40" as="geometry" />
        </mxCell>
        <mxCell id="GnCX_SDy-tHlvZ9ctZLE-24" style="rounded=0;orthogonalLoop=1;jettySize=auto;html=1;exitX=1;exitY=0.5;exitDx=0;exitDy=0;endArrow=none;endFill=0;strokeColor=#B20000;labelBackgroundColor=none;fontColor=default;fillColor=#e51400;entryX=0.11;entryY=1.008;entryDx=0;entryDy=0;entryPerimeter=0;edgeStyle=orthogonalEdgeStyle;" edge="1" parent="1" source="GnCX_SDy-tHlvZ9ctZLE-25" target="GnCX_SDy-tHlvZ9ctZLE-2">
          <mxGeometry relative="1" as="geometry">
            <mxPoint x="500" y="500.5" as="targetPoint" />
          </mxGeometry>
        </mxCell>
        <mxCell id="GnCX_SDy-tHlvZ9ctZLE-25" value="Movie_Desc" style="ellipse;whiteSpace=wrap;html=1;align=center;fontStyle=4;strokeColor=#B20000;labelBackgroundColor=none;fillColor=#e51400;fontColor=#ffffff;" vertex="1" parent="1">
          <mxGeometry x="390" y="530" width="100" height="40" as="geometry" />
        </mxCell>
        <mxCell id="GnCX_SDy-tHlvZ9ctZLE-26" value="Book tickets for" style="shape=rhombus;perimeter=rhombusPerimeter;whiteSpace=wrap;html=1;align=center;strokeColor=#FFFFFF;labelBackgroundColor=none;fillColor=#182E3E;fontColor=#FFFFFF;" vertex="1" parent="1">
          <mxGeometry x="230" y="358" width="120" height="60" as="geometry" />
        </mxCell>
        <mxCell id="GnCX_SDy-tHlvZ9ctZLE-27" style="edgeStyle=orthogonalEdgeStyle;rounded=0;orthogonalLoop=1;jettySize=auto;html=1;entryX=1;entryY=0.5;entryDx=0;entryDy=0;endArrow=none;endFill=0;strokeColor=#23445D;labelBackgroundColor=none;fontColor=default;startArrow=ERoneToMany;startFill=0;exitX=0;exitY=0.5;exitDx=0;exitDy=0;" edge="1" parent="1" source="GnCX_SDy-tHlvZ9ctZLE-28" target="GnCX_SDy-tHlvZ9ctZLE-35">
          <mxGeometry relative="1" as="geometry">
            <mxPoint x="-20" y="478" as="sourcePoint" />
          </mxGeometry>
        </mxCell>
        <mxCell id="GnCX_SDy-tHlvZ9ctZLE-28" value="Online Movie Ticket&lt;br&gt;Booking Website" style="whiteSpace=wrap;html=1;align=center;fillColor=#fad9d5;strokeColor=#ae4132;labelBackgroundColor=none;" vertex="1" parent="1">
          <mxGeometry x="1" y="438" width="150" height="80" as="geometry" />
        </mxCell>
        <mxCell id="GnCX_SDy-tHlvZ9ctZLE-29" style="edgeStyle=orthogonalEdgeStyle;rounded=0;orthogonalLoop=1;jettySize=auto;html=1;exitX=0.5;exitY=1;exitDx=0;exitDy=0;entryX=0.5;entryY=0;entryDx=0;entryDy=0;endArrow=none;endFill=0;strokeColor=#ae4132;labelBackgroundColor=none;fontColor=default;fillColor=#fad9d5;" edge="1" parent="1" source="GnCX_SDy-tHlvZ9ctZLE-30" target="GnCX_SDy-tHlvZ9ctZLE-28">
          <mxGeometry relative="1" as="geometry" />
        </mxCell>
        <mxCell id="GnCX_SDy-tHlvZ9ctZLE-30" value="Website_ID" style="ellipse;whiteSpace=wrap;html=1;align=center;fontStyle=4;fillColor=#fad9d5;strokeColor=#ae4132;labelBackgroundColor=none;" vertex="1" parent="1">
          <mxGeometry x="-70" y="348" width="100" height="40" as="geometry" />
        </mxCell>
        <mxCell id="GnCX_SDy-tHlvZ9ctZLE-31" style="edgeStyle=orthogonalEdgeStyle;rounded=0;orthogonalLoop=1;jettySize=auto;html=1;exitX=0.5;exitY=0;exitDx=0;exitDy=0;entryX=0.25;entryY=1;entryDx=0;entryDy=0;endArrow=none;endFill=0;strokeColor=#ae4132;labelBackgroundColor=none;fontColor=default;fillColor=#fad9d5;" edge="1" parent="1" source="GnCX_SDy-tHlvZ9ctZLE-32" target="GnCX_SDy-tHlvZ9ctZLE-28">
          <mxGeometry relative="1" as="geometry" />
        </mxCell>
        <mxCell id="GnCX_SDy-tHlvZ9ctZLE-32" value="&lt;font style=&quot;font-size: 14px;&quot;&gt;Domain&lt;/font&gt;" style="ellipse;whiteSpace=wrap;html=1;align=center;fillColor=#fad9d5;strokeColor=#ae4132;labelBackgroundColor=none;" vertex="1" parent="1">
          <mxGeometry x="-60" y="598" width="100" height="40" as="geometry" />
        </mxCell>
        <mxCell id="GnCX_SDy-tHlvZ9ctZLE-33" style="edgeStyle=orthogonalEdgeStyle;rounded=0;orthogonalLoop=1;jettySize=auto;html=1;exitX=0.5;exitY=0;exitDx=0;exitDy=0;entryX=0.797;entryY=1.021;entryDx=0;entryDy=0;entryPerimeter=0;endArrow=none;endFill=0;strokeColor=#ae4132;labelBackgroundColor=none;fontColor=default;fillColor=#fad9d5;" edge="1" parent="1" source="GnCX_SDy-tHlvZ9ctZLE-34" target="GnCX_SDy-tHlvZ9ctZLE-28">
          <mxGeometry relative="1" as="geometry" />
        </mxCell>
        <mxCell id="GnCX_SDy-tHlvZ9ctZLE-34" value="URL" style="ellipse;whiteSpace=wrap;html=1;align=center;fillColor=#fad9d5;strokeColor=#ae4132;labelBackgroundColor=none;" vertex="1" parent="1">
          <mxGeometry x="110" y="598" width="100" height="40" as="geometry" />
        </mxCell>
        <mxCell id="GnCX_SDy-tHlvZ9ctZLE-35" value="Managed By" style="shape=rhombus;perimeter=rhombusPerimeter;whiteSpace=wrap;html=1;align=center;strokeColor=#FFFFFF;labelBackgroundColor=none;fillColor=#182E3E;fontColor=#FFFFFF;" vertex="1" parent="1">
          <mxGeometry x="-240" y="448" width="120" height="60" as="geometry" />
        </mxCell>
        <mxCell id="GnCX_SDy-tHlvZ9ctZLE-36" value="Admin" style="whiteSpace=wrap;html=1;align=center;strokeColor=#0e8088;fillColor=#b0e3e6;labelBackgroundColor=none;" vertex="1" parent="1">
          <mxGeometry x="-450" y="458" width="100" height="40" as="geometry" />
        </mxCell>
        <mxCell id="GnCX_SDy-tHlvZ9ctZLE-37" style="edgeStyle=orthogonalEdgeStyle;rounded=0;orthogonalLoop=1;jettySize=auto;html=1;entryX=0.25;entryY=0;entryDx=0;entryDy=0;endArrow=none;endFill=0;strokeColor=#0e8088;labelBackgroundColor=none;fontColor=default;fillColor=#b0e3e6;" edge="1" parent="1" source="GnCX_SDy-tHlvZ9ctZLE-38" target="GnCX_SDy-tHlvZ9ctZLE-36">
          <mxGeometry relative="1" as="geometry">
            <Array as="points">
              <mxPoint x="-580" y="438" />
              <mxPoint x="-425" y="438" />
            </Array>
          </mxGeometry>
        </mxCell>
        <mxCell id="GnCX_SDy-tHlvZ9ctZLE-38" value="Admin_ID" style="ellipse;whiteSpace=wrap;html=1;align=center;fontStyle=4;strokeColor=#0e8088;fillColor=#b0e3e6;labelBackgroundColor=none;" vertex="1" parent="1">
          <mxGeometry x="-625" y="338" width="100" height="40" as="geometry" />
        </mxCell>
        <mxCell id="GnCX_SDy-tHlvZ9ctZLE-39" style="edgeStyle=orthogonalEdgeStyle;rounded=0;orthogonalLoop=1;jettySize=auto;html=1;endArrow=none;endFill=0;strokeColor=#0e8088;labelBackgroundColor=none;fontColor=default;fillColor=#b0e3e6;" edge="1" parent="1" source="GnCX_SDy-tHlvZ9ctZLE-40" target="GnCX_SDy-tHlvZ9ctZLE-36">
          <mxGeometry relative="1" as="geometry" />
        </mxCell>
        <mxCell id="GnCX_SDy-tHlvZ9ctZLE-40" value="Admin_Role" style="ellipse;whiteSpace=wrap;html=1;align=center;strokeColor=#0e8088;fillColor=#b0e3e6;labelBackgroundColor=none;" vertex="1" parent="1">
          <mxGeometry x="-350" y="568" width="100" height="40" as="geometry" />
        </mxCell>
        <mxCell id="GnCX_SDy-tHlvZ9ctZLE-41" style="edgeStyle=orthogonalEdgeStyle;rounded=0;orthogonalLoop=1;jettySize=auto;html=1;exitX=0.5;exitY=0;exitDx=0;exitDy=0;endArrow=none;endFill=0;entryX=0;entryY=0.5;entryDx=0;entryDy=0;strokeColor=#0e8088;labelBackgroundColor=none;fontColor=default;fillColor=#b0e3e6;" edge="1" parent="1" source="GnCX_SDy-tHlvZ9ctZLE-42" target="GnCX_SDy-tHlvZ9ctZLE-36">
          <mxGeometry relative="1" as="geometry">
            <mxPoint x="-520.1538461538462" y="478" as="targetPoint" />
          </mxGeometry>
        </mxCell>
        <mxCell id="GnCX_SDy-tHlvZ9ctZLE-42" value="Admin_Name" style="ellipse;whiteSpace=wrap;html=1;align=center;strokeColor=#0e8088;fillColor=#b0e3e6;labelBackgroundColor=none;" vertex="1" parent="1">
          <mxGeometry x="-610" y="538" width="100" height="40" as="geometry" />
        </mxCell>
        <mxCell id="GnCX_SDy-tHlvZ9ctZLE-43" value="Cinema_ID" style="ellipse;whiteSpace=wrap;html=1;align=center;fontStyle=4;strokeColor=#A50040;labelBackgroundColor=none;fillColor=#d80073;fontColor=#ffffff;" vertex="1" parent="1">
          <mxGeometry x="320" y="798" width="100" height="40" as="geometry" />
        </mxCell>
        <mxCell id="GnCX_SDy-tHlvZ9ctZLE-44" style="rounded=0;orthogonalLoop=1;jettySize=auto;html=1;strokeColor=#A50040;endArrow=none;endFill=0;fillColor=#d80073;exitX=0.25;exitY=0;exitDx=0;exitDy=0;entryX=1;entryY=0.5;entryDx=0;entryDy=0;" edge="1" parent="1" source="GnCX_SDy-tHlvZ9ctZLE-8" target="GnCX_SDy-tHlvZ9ctZLE-45">
          <mxGeometry relative="1" as="geometry">
            <mxPoint x="430" y="768" as="targetPoint" />
            <mxPoint x="548" y="838" as="sourcePoint" />
            <Array as="points">
              <mxPoint x="510" y="768" />
            </Array>
          </mxGeometry>
        </mxCell>
        <mxCell id="GnCX_SDy-tHlvZ9ctZLE-45" value="Cinema_Name" style="ellipse;whiteSpace=wrap;html=1;align=center;strokeColor=#A50040;labelBackgroundColor=none;fillColor=#d80073;fontColor=#ffffff;" vertex="1" parent="1">
          <mxGeometry x="320" y="748" width="100" height="40" as="geometry" />
        </mxCell>
        <mxCell id="GnCX_SDy-tHlvZ9ctZLE-46" style="edgeStyle=orthogonalEdgeStyle;rounded=0;orthogonalLoop=1;jettySize=auto;html=1;exitX=1;exitY=0.5;exitDx=0;exitDy=0;entryX=0.156;entryY=1.021;entryDx=0;entryDy=0;entryPerimeter=0;strokeColor=#36393d;endArrow=none;endFill=0;fillColor=#cdeb8b;" edge="1" parent="1" source="GnCX_SDy-tHlvZ9ctZLE-47" target="GnCX_SDy-tHlvZ9ctZLE-15">
          <mxGeometry relative="1" as="geometry" />
        </mxCell>
        <mxCell id="GnCX_SDy-tHlvZ9ctZLE-47" value="Screen_Name" style="ellipse;whiteSpace=wrap;html=1;align=center;strokeColor=#36393d;labelBackgroundColor=none;fillColor=#cdeb8b;" vertex="1" parent="1">
          <mxGeometry x="400" y="1278" width="100" height="40" as="geometry" />
        </mxCell>
        <mxCell id="GnCX_SDy-tHlvZ9ctZLE-48" style="edgeStyle=orthogonalEdgeStyle;rounded=0;orthogonalLoop=1;jettySize=auto;html=1;exitX=0;exitY=0.5;exitDx=0;exitDy=0;entryX=0.75;entryY=1;entryDx=0;entryDy=0;strokeColor=#36393d;endArrow=none;endFill=0;fillColor=#cdeb8b;" edge="1" parent="1" source="GnCX_SDy-tHlvZ9ctZLE-49" target="GnCX_SDy-tHlvZ9ctZLE-15">
          <mxGeometry relative="1" as="geometry" />
        </mxCell>
        <mxCell id="GnCX_SDy-tHlvZ9ctZLE-49" value="Cinema_ID (FK)" style="ellipse;whiteSpace=wrap;html=1;align=center;strokeColor=#36393d;labelBackgroundColor=none;fillColor=#cdeb8b;" vertex="1" parent="1">
          <mxGeometry x="620" y="1278" width="100" height="40" as="geometry" />
        </mxCell>
        <mxCell id="GnCX_SDy-tHlvZ9ctZLE-50" style="rounded=0;orthogonalLoop=1;jettySize=auto;html=1;endArrow=none;endFill=0;entryX=1;entryY=0;entryDx=0;entryDy=0;strokeColor=#B20000;labelBackgroundColor=none;fontColor=default;fillColor=#e51400;edgeStyle=elbowEdgeStyle;elbow=vertical;" edge="1" parent="1" target="GnCX_SDy-tHlvZ9ctZLE-2">
          <mxGeometry relative="1" as="geometry">
            <mxPoint x="685.36" y="498" as="targetPoint" />
            <mxPoint x="713" y="400" as="sourcePoint" />
          </mxGeometry>
        </mxCell>
        <mxCell id="GnCX_SDy-tHlvZ9ctZLE-51" style="edgeStyle=orthogonalEdgeStyle;rounded=0;orthogonalLoop=1;jettySize=auto;html=1;entryX=0.883;entryY=-0.019;entryDx=0;entryDy=0;entryPerimeter=0;endArrow=none;endFill=0;strokeColor=#ae4132;labelBackgroundColor=none;fontColor=default;fillColor=#fad9d5;" edge="1" parent="1" source="GnCX_SDy-tHlvZ9ctZLE-52" target="GnCX_SDy-tHlvZ9ctZLE-28">
          <mxGeometry relative="1" as="geometry" />
        </mxCell>
        <mxCell id="GnCX_SDy-tHlvZ9ctZLE-52" value="&lt;font style=&quot;font-size: 15px;&quot;&gt;Title&lt;/font&gt;" style="ellipse;whiteSpace=wrap;html=1;align=center;fillColor=#fad9d5;strokeColor=#ae4132;labelBackgroundColor=none;" vertex="1" parent="1">
          <mxGeometry x="110" y="343" width="100" height="40" as="geometry" />
        </mxCell>
        <mxCell id="GnCX_SDy-tHlvZ9ctZLE-53" style="edgeStyle=orthogonalEdgeStyle;rounded=0;orthogonalLoop=1;jettySize=auto;html=1;exitX=0.5;exitY=1;exitDx=0;exitDy=0;entryX=0.5;entryY=0;entryDx=0;entryDy=0;endArrow=none;endFill=0;strokeColor=#0e8088;labelBackgroundColor=none;fontColor=default;fillColor=#b0e3e6;" edge="1" parent="1" source="GnCX_SDy-tHlvZ9ctZLE-54" target="GnCX_SDy-tHlvZ9ctZLE-36">
          <mxGeometry relative="1" as="geometry" />
        </mxCell>
        <mxCell id="GnCX_SDy-tHlvZ9ctZLE-54" value="Website_ID (FK)" style="ellipse;whiteSpace=wrap;html=1;align=center;strokeColor=#0e8088;fillColor=#b0e3e6;labelBackgroundColor=none;" vertex="1" parent="1">
          <mxGeometry x="-510" y="328" width="100" height="40" as="geometry" />
        </mxCell>
        <mxCell id="GnCX_SDy-tHlvZ9ctZLE-55" style="edgeStyle=orthogonalEdgeStyle;rounded=0;orthogonalLoop=1;jettySize=auto;html=1;entryX=0.872;entryY=0.007;entryDx=0;entryDy=0;entryPerimeter=0;endArrow=none;endFill=0;strokeColor=#0e8088;labelBackgroundColor=none;fontColor=default;fillColor=#b0e3e6;" edge="1" parent="1" source="GnCX_SDy-tHlvZ9ctZLE-56" target="GnCX_SDy-tHlvZ9ctZLE-36">
          <mxGeometry relative="1" as="geometry" />
        </mxCell>
        <mxCell id="GnCX_SDy-tHlvZ9ctZLE-56" value="Admin_Contact_No" style="ellipse;whiteSpace=wrap;html=1;align=center;strokeColor=#0e8088;fillColor=#b0e3e6;labelBackgroundColor=none;" vertex="1" parent="1">
          <mxGeometry x="-375" y="328" width="140" height="40" as="geometry" />
        </mxCell>
        <mxCell id="GnCX_SDy-tHlvZ9ctZLE-57" value="Theatre_Staff" style="whiteSpace=wrap;html=1;align=center;strokeColor=#6F0000;labelBackgroundColor=none;fillColor=#a20025;fontColor=#ffffff;" vertex="1" parent="1">
          <mxGeometry x="150" y="1028" width="100" height="40" as="geometry" />
        </mxCell>
        <mxCell id="GnCX_SDy-tHlvZ9ctZLE-58" style="edgeStyle=orthogonalEdgeStyle;rounded=0;orthogonalLoop=1;jettySize=auto;html=1;exitX=1;exitY=0.5;exitDx=0;exitDy=0;entryX=0.25;entryY=0;entryDx=0;entryDy=0;endArrow=none;endFill=0;strokeColor=#6F0000;labelBackgroundColor=none;fontColor=default;fillColor=#a20025;" edge="1" parent="1" source="GnCX_SDy-tHlvZ9ctZLE-59" target="GnCX_SDy-tHlvZ9ctZLE-57">
          <mxGeometry relative="1" as="geometry" />
        </mxCell>
        <mxCell id="GnCX_SDy-tHlvZ9ctZLE-59" value="Staff_ID" style="ellipse;whiteSpace=wrap;html=1;align=center;fontStyle=4;strokeColor=#6F0000;labelBackgroundColor=none;fillColor=#a20025;fontColor=#ffffff;" vertex="1" parent="1">
          <mxGeometry x="10" y="948" width="100" height="40" as="geometry" />
        </mxCell>
        <mxCell id="GnCX_SDy-tHlvZ9ctZLE-60" style="edgeStyle=orthogonalEdgeStyle;rounded=0;orthogonalLoop=1;jettySize=auto;html=1;exitX=1;exitY=0.5;exitDx=0;exitDy=0;entryX=0.25;entryY=1;entryDx=0;entryDy=0;strokeColor=#721818;endArrow=none;endFill=0;" edge="1" parent="1" source="GnCX_SDy-tHlvZ9ctZLE-61" target="GnCX_SDy-tHlvZ9ctZLE-57">
          <mxGeometry relative="1" as="geometry" />
        </mxCell>
        <mxCell id="GnCX_SDy-tHlvZ9ctZLE-61" value="Staff_Position" style="ellipse;whiteSpace=wrap;html=1;align=center;strokeColor=#6F0000;labelBackgroundColor=none;fillColor=#a20025;fontColor=#ffffff;" vertex="1" parent="1">
          <mxGeometry x="20" y="1128" width="100" height="40" as="geometry" />
        </mxCell>
        <mxCell id="GnCX_SDy-tHlvZ9ctZLE-62" style="edgeStyle=orthogonalEdgeStyle;rounded=0;orthogonalLoop=1;jettySize=auto;html=1;exitX=0.5;exitY=0;exitDx=0;exitDy=0;entryX=0.5;entryY=1;entryDx=0;entryDy=0;endArrow=none;endFill=0;strokeColor=#6F0000;labelBackgroundColor=none;fontColor=default;fillColor=#a20025;" edge="1" parent="1" source="GnCX_SDy-tHlvZ9ctZLE-63" target="GnCX_SDy-tHlvZ9ctZLE-57">
          <mxGeometry relative="1" as="geometry" />
        </mxCell>
        <mxCell id="GnCX_SDy-tHlvZ9ctZLE-63" value="Cinema_ID (FK)" style="ellipse;whiteSpace=wrap;html=1;align=center;strokeColor=#6F0000;labelBackgroundColor=none;fillColor=#a20025;fontColor=#ffffff;" vertex="1" parent="1">
          <mxGeometry x="180" y="1158" width="100" height="40" as="geometry" />
        </mxCell>
        <mxCell id="GnCX_SDy-tHlvZ9ctZLE-64" style="edgeStyle=orthogonalEdgeStyle;rounded=0;orthogonalLoop=1;jettySize=auto;html=1;exitX=1;exitY=0.5;exitDx=0;exitDy=0;entryX=0;entryY=0.5;entryDx=0;entryDy=0;endArrow=none;endFill=0;strokeColor=#6F0000;labelBackgroundColor=none;fontColor=default;fillColor=#a20025;" edge="1" parent="1" source="GnCX_SDy-tHlvZ9ctZLE-65" target="GnCX_SDy-tHlvZ9ctZLE-57">
          <mxGeometry relative="1" as="geometry" />
        </mxCell>
        <mxCell id="GnCX_SDy-tHlvZ9ctZLE-65" value="Staff_Name" style="ellipse;whiteSpace=wrap;html=1;align=center;strokeColor=#6F0000;labelBackgroundColor=none;fillColor=#a20025;fontColor=#ffffff;" vertex="1" parent="1">
          <mxGeometry x="-25" y="1018" width="100" height="40" as="geometry" />
        </mxCell>
        <mxCell id="GnCX_SDy-tHlvZ9ctZLE-66" style="edgeStyle=orthogonalEdgeStyle;rounded=0;orthogonalLoop=1;jettySize=auto;html=1;exitX=0.25;exitY=0;exitDx=0;exitDy=0;entryX=1;entryY=0.5;entryDx=0;entryDy=0;endArrow=none;endFill=0;strokeColor=#996185;labelBackgroundColor=none;fontColor=default;fillColor=#e6d0de;gradientColor=#d5739d;" edge="1" parent="1" source="GnCX_SDy-tHlvZ9ctZLE-68" target="GnCX_SDy-tHlvZ9ctZLE-73">
          <mxGeometry relative="1" as="geometry" />
        </mxCell>
        <mxCell id="GnCX_SDy-tHlvZ9ctZLE-67" style="rounded=0;orthogonalLoop=1;jettySize=auto;html=1;entryX=1;entryY=0.5;entryDx=0;entryDy=0;endArrow=none;endFill=0;strokeColor=#996185;labelBackgroundColor=none;fontColor=default;fillColor=#e6d0de;gradientColor=#d5739d;exitX=0.108;exitY=-0.062;exitDx=0;exitDy=0;exitPerimeter=0;" edge="1" parent="1" source="GnCX_SDy-tHlvZ9ctZLE-68" target="GnCX_SDy-tHlvZ9ctZLE-114">
          <mxGeometry relative="1" as="geometry">
            <mxPoint x="1019.9999999999795" y="8" as="targetPoint" />
            <mxPoint x="1080" y="78" as="sourcePoint" />
            <Array as="points">
              <mxPoint x="1089" y="8" />
            </Array>
          </mxGeometry>
        </mxCell>
        <mxCell id="GnCX_SDy-tHlvZ9ctZLE-68" value="Customer_Feedback" style="whiteSpace=wrap;html=1;align=center;strokeColor=#996185;labelBackgroundColor=none;fillColor=#e6d0de;gradientColor=#d5739d;" vertex="1" parent="1">
          <mxGeometry x="1075" y="88" width="130" height="40" as="geometry" />
        </mxCell>
        <mxCell id="GnCX_SDy-tHlvZ9ctZLE-69" style="rounded=0;orthogonalLoop=1;jettySize=auto;html=1;entryX=0.577;entryY=0;entryDx=0;entryDy=0;entryPerimeter=0;endArrow=none;endFill=0;strokeColor=#996185;labelBackgroundColor=none;fontColor=default;fillColor=#e6d0de;gradientColor=#d5739d;" edge="1" parent="1" source="GnCX_SDy-tHlvZ9ctZLE-70" target="GnCX_SDy-tHlvZ9ctZLE-68">
          <mxGeometry relative="1" as="geometry" />
        </mxCell>
        <mxCell id="GnCX_SDy-tHlvZ9ctZLE-70" value="Feedback_ID" style="ellipse;whiteSpace=wrap;html=1;align=center;fontStyle=4;strokeColor=#996185;labelBackgroundColor=none;fillColor=#e6d0de;gradientColor=#d5739d;" vertex="1" parent="1">
          <mxGeometry x="1080" y="-132" width="130" height="40" as="geometry" />
        </mxCell>
        <mxCell id="GnCX_SDy-tHlvZ9ctZLE-71" style="rounded=0;orthogonalLoop=1;jettySize=auto;html=1;entryX=0.75;entryY=0;entryDx=0;entryDy=0;endArrow=none;endFill=0;strokeColor=#996185;labelBackgroundColor=none;fontColor=default;fillColor=#e6d0de;gradientColor=#d5739d;exitX=0;exitY=0.5;exitDx=0;exitDy=0;" edge="1" parent="1" source="GnCX_SDy-tHlvZ9ctZLE-72" target="GnCX_SDy-tHlvZ9ctZLE-68">
          <mxGeometry relative="1" as="geometry">
            <mxPoint x="1210" y="-52" as="sourcePoint" />
            <Array as="points">
              <mxPoint x="1173" y="-52" />
            </Array>
          </mxGeometry>
        </mxCell>
        <mxCell id="GnCX_SDy-tHlvZ9ctZLE-72" value="Movie_ID(FK)" style="ellipse;whiteSpace=wrap;html=1;align=center;strokeColor=#996185;labelBackgroundColor=none;fillColor=#e6d0de;gradientColor=#d5739d;" vertex="1" parent="1">
          <mxGeometry x="1220" y="-72" width="80" height="40" as="geometry" />
        </mxCell>
        <mxCell id="GnCX_SDy-tHlvZ9ctZLE-73" value="Customer_ID(FK)" style="ellipse;whiteSpace=wrap;html=1;align=center;strokeColor=#996185;labelBackgroundColor=none;fillColor=#e6d0de;gradientColor=#d5739d;" vertex="1" parent="1">
          <mxGeometry x="970" y="-82" width="100" height="40" as="geometry" />
        </mxCell>
        <mxCell id="GnCX_SDy-tHlvZ9ctZLE-74" style="rounded=0;orthogonalLoop=1;jettySize=auto;html=1;entryX=1;entryY=0;entryDx=0;entryDy=0;endArrow=none;endFill=0;strokeColor=#996185;labelBackgroundColor=none;fontColor=default;fillColor=#e6d0de;gradientColor=#d5739d;exitX=0;exitY=0.5;exitDx=0;exitDy=0;" edge="1" parent="1" source="GnCX_SDy-tHlvZ9ctZLE-75" target="GnCX_SDy-tHlvZ9ctZLE-68">
          <mxGeometry relative="1" as="geometry">
            <mxPoint x="1300" y="-2" as="sourcePoint" />
            <Array as="points">
              <mxPoint x="1205" y="-2" />
            </Array>
          </mxGeometry>
        </mxCell>
        <mxCell id="GnCX_SDy-tHlvZ9ctZLE-75" value="Rating" style="ellipse;whiteSpace=wrap;html=1;align=center;strokeColor=#996185;labelBackgroundColor=none;fillColor=#e6d0de;gradientColor=#d5739d;" vertex="1" parent="1">
          <mxGeometry x="1300" y="-22" width="100" height="40" as="geometry" />
        </mxCell>
        <mxCell id="GnCX_SDy-tHlvZ9ctZLE-76" style="edgeStyle=orthogonalEdgeStyle;rounded=0;orthogonalLoop=1;jettySize=auto;html=1;exitX=0.5;exitY=1;exitDx=0;exitDy=0;strokeColor=#23445D;endArrow=none;endFill=0;" edge="1" parent="1" source="GnCX_SDy-tHlvZ9ctZLE-57" target="GnCX_SDy-tHlvZ9ctZLE-57">
          <mxGeometry relative="1" as="geometry" />
        </mxCell>
        <mxCell id="GnCX_SDy-tHlvZ9ctZLE-77" style="rounded=0;orthogonalLoop=1;jettySize=auto;html=1;exitX=0.938;exitY=0.493;exitDx=0;exitDy=0;entryX=0;entryY=0.25;entryDx=0;entryDy=0;endArrow=ERoneToMany;endFill=0;exitPerimeter=0;" edge="1" parent="1" source="GnCX_SDy-tHlvZ9ctZLE-78" target="GnCX_SDy-tHlvZ9ctZLE-92">
          <mxGeometry relative="1" as="geometry">
            <Array as="points">
              <mxPoint x="400" y="-166" />
            </Array>
          </mxGeometry>
        </mxCell>
        <mxCell id="GnCX_SDy-tHlvZ9ctZLE-78" value="Makes" style="shape=rhombus;perimeter=rhombusPerimeter;whiteSpace=wrap;html=1;align=center;strokeColor=#FFFFFF;labelBackgroundColor=none;fillColor=#182E3E;fontColor=#FFFFFF;" vertex="1" parent="1">
          <mxGeometry x="285" y="-12" width="120" height="70" as="geometry" />
        </mxCell>
        <mxCell id="GnCX_SDy-tHlvZ9ctZLE-79" value="Has" style="shape=rhombus;perimeter=rhombusPerimeter;whiteSpace=wrap;html=1;align=center;strokeColor=#FFFFFF;labelBackgroundColor=none;fillColor=#182E3E;fontColor=#FFFFFF;" vertex="1" parent="1">
          <mxGeometry x="1095" y="246" width="90" height="60" as="geometry" />
        </mxCell>
        <mxCell id="GnCX_SDy-tHlvZ9ctZLE-80" value="Customer" style="whiteSpace=wrap;html=1;align=center;strokeColor=#6c8ebf;fillColor=#dae8fc;labelBackgroundColor=none;gradientColor=#7ea6e0;" vertex="1" parent="1">
          <mxGeometry x="40" y="-12" width="100" height="70" as="geometry" />
        </mxCell>
        <mxCell id="GnCX_SDy-tHlvZ9ctZLE-81" style="rounded=0;orthogonalLoop=1;jettySize=auto;html=1;entryX=-0.025;entryY=0.107;entryDx=0;entryDy=0;entryPerimeter=0;endArrow=none;endFill=0;strokeColor=#6c8ebf;labelBackgroundColor=none;fontColor=default;fillColor=#dae8fc;gradientColor=#7ea6e0;edgeStyle=elbowEdgeStyle;exitX=1;exitY=0.5;exitDx=0;exitDy=0;" edge="1" parent="1" source="GnCX_SDy-tHlvZ9ctZLE-82" target="GnCX_SDy-tHlvZ9ctZLE-80">
          <mxGeometry relative="1" as="geometry">
            <mxPoint x="-85" y="-18" as="sourcePoint" />
            <mxPoint x="30" y="-2.8599999999999" as="targetPoint" />
          </mxGeometry>
        </mxCell>
        <mxCell id="GnCX_SDy-tHlvZ9ctZLE-82" value="Customer_ID" style="ellipse;whiteSpace=wrap;html=1;align=center;fontStyle=4;strokeColor=#6c8ebf;fillColor=#dae8fc;labelBackgroundColor=none;gradientColor=#7ea6e0;" vertex="1" parent="1">
          <mxGeometry x="-170" y="-60" width="100" height="40" as="geometry" />
        </mxCell>
        <mxCell id="GnCX_SDy-tHlvZ9ctZLE-83" style="rounded=0;orthogonalLoop=1;jettySize=auto;html=1;endArrow=none;endFill=0;strokeColor=#6c8ebf;labelBackgroundColor=none;fontColor=default;fillColor=#dae8fc;gradientColor=#7ea6e0;entryX=0.185;entryY=0;entryDx=0;entryDy=0;entryPerimeter=0;" edge="1" parent="1" target="GnCX_SDy-tHlvZ9ctZLE-80">
          <mxGeometry relative="1" as="geometry">
            <mxPoint x="54" y="-112" as="sourcePoint" />
            <mxPoint x="54" y="-12" as="targetPoint" />
          </mxGeometry>
        </mxCell>
        <mxCell id="GnCX_SDy-tHlvZ9ctZLE-84" value="Customer_Name" style="ellipse;whiteSpace=wrap;html=1;align=center;strokeColor=#6c8ebf;fillColor=#dae8fc;labelBackgroundColor=none;gradientColor=#7ea6e0;" vertex="1" parent="1">
          <mxGeometry y="-152" width="100" height="40" as="geometry" />
        </mxCell>
        <mxCell id="GnCX_SDy-tHlvZ9ctZLE-85" style="edgeStyle=orthogonalEdgeStyle;rounded=0;orthogonalLoop=1;jettySize=auto;html=1;entryX=0.5;entryY=0;entryDx=0;entryDy=0;endArrow=none;endFill=0;strokeColor=#6c8ebf;labelBackgroundColor=none;fontColor=default;fillColor=#dae8fc;gradientColor=#7ea6e0;" edge="1" parent="1" source="GnCX_SDy-tHlvZ9ctZLE-86" target="GnCX_SDy-tHlvZ9ctZLE-80">
          <mxGeometry relative="1" as="geometry" />
        </mxCell>
        <mxCell id="GnCX_SDy-tHlvZ9ctZLE-86" value="Customer_Address" style="ellipse;whiteSpace=wrap;html=1;align=center;strokeColor=#6c8ebf;fillColor=#dae8fc;labelBackgroundColor=none;gradientColor=#7ea6e0;" vertex="1" parent="1">
          <mxGeometry x="150" y="-112" width="130" height="40" as="geometry" />
        </mxCell>
        <mxCell id="GnCX_SDy-tHlvZ9ctZLE-87" style="rounded=0;orthogonalLoop=1;jettySize=auto;html=1;endArrow=none;endFill=0;strokeColor=#6c8ebf;labelBackgroundColor=none;fontColor=default;fillColor=#dae8fc;gradientColor=#7ea6e0;exitX=0;exitY=0;exitDx=0;exitDy=0;" edge="1" parent="1" source="GnCX_SDy-tHlvZ9ctZLE-80" target="GnCX_SDy-tHlvZ9ctZLE-89">
          <mxGeometry relative="1" as="geometry">
            <mxPoint x="-50" y="-90" as="targetPoint" />
            <mxPoint x="-12.5" y="-72" as="sourcePoint" />
          </mxGeometry>
        </mxCell>
        <mxCell id="GnCX_SDy-tHlvZ9ctZLE-88" value="&lt;font style=&quot;font-size: 15px;&quot;&gt;Visit&lt;/font&gt;" style="shape=rhombus;perimeter=rhombusPerimeter;whiteSpace=wrap;html=1;align=center;strokeColor=#FFFFFF;labelBackgroundColor=none;fillColor=#182E3E;fontColor=#FFFFFF;" vertex="1" parent="1">
          <mxGeometry x="30" y="218" width="120" height="60" as="geometry" />
        </mxCell>
        <mxCell id="GnCX_SDy-tHlvZ9ctZLE-89" value="Customer_Contact_No" style="ellipse;shape=doubleEllipse;margin=3;whiteSpace=wrap;html=1;align=center;fillColor=#dae8fc;strokeColor=#6c8ebf;gradientColor=#7ea6e0;" vertex="1" parent="1">
          <mxGeometry x="-170" y="-132" width="140" height="40" as="geometry" />
        </mxCell>
        <mxCell id="GnCX_SDy-tHlvZ9ctZLE-90" style="rounded=0;orthogonalLoop=1;jettySize=auto;html=1;entryX=0.5;entryY=0;entryDx=0;entryDy=0;endArrow=none;endFill=0;strokeColor=#6c8ebf;fillColor=#dae8fc;gradientColor=#7ea6e0;exitX=0.5;exitY=1;exitDx=0;exitDy=0;" edge="1" parent="1" source="GnCX_SDy-tHlvZ9ctZLE-107" target="GnCX_SDy-tHlvZ9ctZLE-84">
          <mxGeometry relative="1" as="geometry">
            <mxPoint x="50" y="-222" as="sourcePoint" />
            <mxPoint x="97.67533905932743" y="-174.07213562373107" as="targetPoint" />
          </mxGeometry>
        </mxCell>
        <mxCell id="GnCX_SDy-tHlvZ9ctZLE-91" style="rounded=0;orthogonalLoop=1;jettySize=auto;html=1;endArrow=none;endFill=0;strokeColor=#6c8ebf;fillColor=#dae8fc;gradientColor=#7ea6e0;entryX=0.2;entryY=0.146;entryDx=0;entryDy=0;entryPerimeter=0;" edge="1" parent="1" target="GnCX_SDy-tHlvZ9ctZLE-84">
          <mxGeometry relative="1" as="geometry">
            <Array as="points">
              <mxPoint x="20" y="-202" />
            </Array>
            <mxPoint x="-40" y="-201.99999999999977" as="sourcePoint" />
            <mxPoint x="20" y="-152" as="targetPoint" />
          </mxGeometry>
        </mxCell>
        <mxCell id="GnCX_SDy-tHlvZ9ctZLE-92" value="Transactions" style="whiteSpace=wrap;html=1;align=center;fillColor=#ffcd28;gradientColor=#ffa500;strokeColor=#d79b00;" vertex="1" parent="1">
          <mxGeometry x="505" y="-177" width="140" height="45" as="geometry" />
        </mxCell>
        <mxCell id="GnCX_SDy-tHlvZ9ctZLE-93" style="edgeStyle=orthogonalEdgeStyle;rounded=0;orthogonalLoop=1;jettySize=auto;html=1;exitX=0.5;exitY=1;exitDx=0;exitDy=0;endArrow=none;endFill=0;fillColor=#ffcd28;gradientColor=#ffa500;strokeColor=#d79b00;" edge="1" parent="1" source="GnCX_SDy-tHlvZ9ctZLE-94" target="GnCX_SDy-tHlvZ9ctZLE-92">
          <mxGeometry relative="1" as="geometry" />
        </mxCell>
        <mxCell id="GnCX_SDy-tHlvZ9ctZLE-94" value="Customer_ID (FK)" style="ellipse;whiteSpace=wrap;html=1;align=center;fillColor=#ffcd28;gradientColor=#ffa500;strokeColor=#d79b00;" vertex="1" parent="1">
          <mxGeometry x="525" y="-362" width="100" height="40" as="geometry" />
        </mxCell>
        <mxCell id="GnCX_SDy-tHlvZ9ctZLE-95" style="edgeStyle=orthogonalEdgeStyle;rounded=0;orthogonalLoop=1;jettySize=auto;html=1;exitX=1;exitY=0.5;exitDx=0;exitDy=0;entryX=0.25;entryY=0;entryDx=0;entryDy=0;endArrow=none;endFill=0;fillColor=#ffcd28;gradientColor=#ffa500;strokeColor=#d79b00;" edge="1" parent="1" source="GnCX_SDy-tHlvZ9ctZLE-96" target="GnCX_SDy-tHlvZ9ctZLE-92">
          <mxGeometry relative="1" as="geometry" />
        </mxCell>
        <mxCell id="GnCX_SDy-tHlvZ9ctZLE-96" value="Transaction_ID" style="ellipse;whiteSpace=wrap;html=1;align=center;fontStyle=4;fillColor=#ffcd28;gradientColor=#ffa500;strokeColor=#d79b00;" vertex="1" parent="1">
          <mxGeometry x="370" y="-292" width="100" height="40" as="geometry" />
        </mxCell>
        <mxCell id="GnCX_SDy-tHlvZ9ctZLE-97" style="rounded=0;orthogonalLoop=1;jettySize=auto;html=1;entryX=1;entryY=0.25;entryDx=0;entryDy=0;endArrow=none;endFill=0;fillColor=#ffcd28;gradientColor=#ffa500;strokeColor=#d79b00;exitX=0;exitY=0.5;exitDx=0;exitDy=0;edgeStyle=orthogonalEdgeStyle;" edge="1" parent="1" source="GnCX_SDy-tHlvZ9ctZLE-98" target="GnCX_SDy-tHlvZ9ctZLE-92">
          <mxGeometry relative="1" as="geometry">
            <mxPoint x="730" y="-166" as="sourcePoint" />
          </mxGeometry>
        </mxCell>
        <mxCell id="GnCX_SDy-tHlvZ9ctZLE-98" value="Transaction_Date" style="ellipse;whiteSpace=wrap;html=1;align=center;fillColor=#ffcd28;gradientColor=#ffa500;strokeColor=#d79b00;" vertex="1" parent="1">
          <mxGeometry x="730" y="-217" width="100" height="40" as="geometry" />
        </mxCell>
        <mxCell id="GnCX_SDy-tHlvZ9ctZLE-99" style="rounded=0;orthogonalLoop=1;jettySize=auto;html=1;entryX=1;entryY=0.75;entryDx=0;entryDy=0;endArrow=none;endFill=0;strokeColor=#d79b00;fillColor=#ffcd28;gradientColor=#ffa500;exitX=0.568;exitY=0.003;exitDx=0;exitDy=0;exitPerimeter=0;" edge="1" parent="1" source="GnCX_SDy-tHlvZ9ctZLE-100" target="GnCX_SDy-tHlvZ9ctZLE-92">
          <mxGeometry relative="1" as="geometry">
            <mxPoint x="720" y="-112" as="sourcePoint" />
            <mxPoint x="653.06" y="-147.0000000000001" as="targetPoint" />
            <Array as="points">
              <mxPoint x="720" y="-142" />
            </Array>
          </mxGeometry>
        </mxCell>
        <mxCell id="GnCX_SDy-tHlvZ9ctZLE-100" value="Transaction_Amount" style="ellipse;whiteSpace=wrap;html=1;align=center;fillColor=#ffcd28;gradientColor=#ffa500;strokeColor=#d79b00;" vertex="1" parent="1">
          <mxGeometry x="660" y="-102" width="140" height="40" as="geometry" />
        </mxCell>
        <mxCell id="GnCX_SDy-tHlvZ9ctZLE-101" style="edgeStyle=orthogonalEdgeStyle;rounded=0;orthogonalLoop=1;jettySize=auto;html=1;endArrow=ERoneToMany;endFill=0;" edge="1" parent="1" source="GnCX_SDy-tHlvZ9ctZLE-102">
          <mxGeometry relative="1" as="geometry">
            <mxPoint x="550" y="-132" as="targetPoint" />
          </mxGeometry>
        </mxCell>
        <mxCell id="GnCX_SDy-tHlvZ9ctZLE-102" value="Has" style="shape=rhombus;perimeter=rhombusPerimeter;whiteSpace=wrap;html=1;align=center;strokeColor=#FFFFFF;labelBackgroundColor=none;fillColor=#182E3E;fontColor=#FFFFFF;" vertex="1" parent="1">
          <mxGeometry x="490" y="168" width="120" height="60" as="geometry" />
        </mxCell>
        <mxCell id="GnCX_SDy-tHlvZ9ctZLE-103" value="Gives" style="shape=rhombus;perimeter=rhombusPerimeter;whiteSpace=wrap;html=1;align=center;strokeColor=#FFFFFF;labelBackgroundColor=none;fillColor=#182E3E;fontColor=#FFFFFF;" vertex="1" parent="1">
          <mxGeometry x="810" y="78" width="90" height="60" as="geometry" />
        </mxCell>
        <mxCell id="GnCX_SDy-tHlvZ9ctZLE-104" value="Age" style="ellipse;whiteSpace=wrap;html=1;align=center;dashed=1;fillColor=#dae8fc;gradientColor=#7ea6e0;strokeColor=#6c8ebf;" vertex="1" parent="1">
          <mxGeometry x="-160" y="28" width="100" height="40" as="geometry" />
        </mxCell>
        <mxCell id="GnCX_SDy-tHlvZ9ctZLE-105" style="rounded=0;orthogonalLoop=1;jettySize=auto;html=1;endArrow=none;endFill=0;strokeColor=#6c8ebf;fillColor=#dae8fc;gradientColor=#7ea6e0;entryX=0.018;entryY=0.615;entryDx=0;entryDy=0;exitX=1;exitY=0;exitDx=0;exitDy=0;entryPerimeter=0;edgeStyle=orthogonalEdgeStyle;" edge="1" parent="1" source="GnCX_SDy-tHlvZ9ctZLE-104" target="GnCX_SDy-tHlvZ9ctZLE-80">
          <mxGeometry relative="1" as="geometry">
            <mxPoint x="-120" y="28" as="sourcePoint" />
            <mxPoint x="40" y="28" as="targetPoint" />
          </mxGeometry>
        </mxCell>
        <mxCell id="GnCX_SDy-tHlvZ9ctZLE-106" value="FirstName" style="ellipse;whiteSpace=wrap;html=1;align=center;strokeColor=#6c8ebf;fillColor=#dae8fc;labelBackgroundColor=none;gradientColor=#7ea6e0;" vertex="1" parent="1">
          <mxGeometry x="-140" y="-222" width="100" height="40" as="geometry" />
        </mxCell>
        <mxCell id="GnCX_SDy-tHlvZ9ctZLE-107" value="LastName" style="ellipse;whiteSpace=wrap;html=1;align=center;strokeColor=#6c8ebf;fillColor=#dae8fc;labelBackgroundColor=none;gradientColor=#7ea6e0;" vertex="1" parent="1">
          <mxGeometry y="-262" width="100" height="40" as="geometry" />
        </mxCell>
        <mxCell id="GnCX_SDy-tHlvZ9ctZLE-108" value="Gender" style="ellipse;whiteSpace=wrap;html=1;align=center;strokeColor=#6c8ebf;fillColor=#dae8fc;labelBackgroundColor=none;gradientColor=#7ea6e0;" vertex="1" parent="1">
          <mxGeometry x="-130" y="98" width="100" height="40" as="geometry" />
        </mxCell>
        <mxCell id="GnCX_SDy-tHlvZ9ctZLE-109" style="rounded=0;orthogonalLoop=1;jettySize=auto;html=1;exitX=0.7;exitY=0.05;exitDx=0;exitDy=0;endArrow=none;endFill=0;strokeColor=#6c8ebf;labelBackgroundColor=none;fontColor=default;fillColor=#dae8fc;gradientColor=#7ea6e0;exitPerimeter=0;" edge="1" parent="1" source="GnCX_SDy-tHlvZ9ctZLE-108">
          <mxGeometry relative="1" as="geometry">
            <mxPoint x="-50" y="68" as="sourcePoint" />
            <mxPoint x="40" y="50" as="targetPoint" />
            <Array as="points">
              <mxPoint x="-20" y="50" />
            </Array>
          </mxGeometry>
        </mxCell>
        <mxCell id="GnCX_SDy-tHlvZ9ctZLE-110" value="Movie_ID (FK)" style="ellipse;whiteSpace=wrap;html=1;align=center;fillColor=#ffcd28;gradientColor=#ffa500;strokeColor=#d79b00;" vertex="1" parent="1">
          <mxGeometry x="645" y="-302" width="100" height="40" as="geometry" />
        </mxCell>
        <mxCell id="GnCX_SDy-tHlvZ9ctZLE-111" style="rounded=0;orthogonalLoop=1;jettySize=auto;html=1;endArrow=none;endFill=0;fillColor=#ffcd28;gradientColor=#ffa500;strokeColor=#d79b00;entryX=0.861;entryY=0;entryDx=0;entryDy=0;entryPerimeter=0;exitX=0.368;exitY=0.974;exitDx=0;exitDy=0;exitPerimeter=0;edgeStyle=orthogonalEdgeStyle;" edge="1" parent="1" source="GnCX_SDy-tHlvZ9ctZLE-110" target="GnCX_SDy-tHlvZ9ctZLE-92">
          <mxGeometry relative="1" as="geometry">
            <mxPoint x="650" y="-172" as="targetPoint" />
            <mxPoint x="660" y="-262" as="sourcePoint" />
          </mxGeometry>
        </mxCell>
        <mxCell id="GnCX_SDy-tHlvZ9ctZLE-112" value="Payment_Method" style="ellipse;whiteSpace=wrap;html=1;align=center;fillColor=#ffcd28;gradientColor=#ffa500;strokeColor=#d79b00;" vertex="1" parent="1">
          <mxGeometry x="390" y="-242" width="100" height="40" as="geometry" />
        </mxCell>
        <mxCell id="GnCX_SDy-tHlvZ9ctZLE-113" style="edgeStyle=orthogonalEdgeStyle;rounded=0;orthogonalLoop=1;jettySize=auto;html=1;endArrow=none;endFill=0;fillColor=#ffcd28;gradientColor=#ffa500;strokeColor=#d79b00;exitX=1;exitY=0.5;exitDx=0;exitDy=0;" edge="1" parent="1" source="GnCX_SDy-tHlvZ9ctZLE-112">
          <mxGeometry relative="1" as="geometry">
            <mxPoint x="475" y="-212" as="sourcePoint" />
            <mxPoint x="529" y="-180" as="targetPoint" />
          </mxGeometry>
        </mxCell>
        <mxCell id="GnCX_SDy-tHlvZ9ctZLE-114" value="Feedback_Text" style="ellipse;shape=doubleEllipse;margin=3;whiteSpace=wrap;html=1;align=center;fillColor=#e6d0de;gradientColor=#d5739d;strokeColor=#996185;" vertex="1" parent="1">
          <mxGeometry x="920" y="-12" width="100" height="40" as="geometry" />
        </mxCell>
        <mxCell id="GnCX_SDy-tHlvZ9ctZLE-115" value="Admin_Password" style="ellipse;whiteSpace=wrap;html=1;align=center;strokeColor=#0e8088;fillColor=#b0e3e6;labelBackgroundColor=none;" vertex="1" parent="1">
          <mxGeometry x="-475" y="578" width="100" height="40" as="geometry" />
        </mxCell>
        <mxCell id="GnCX_SDy-tHlvZ9ctZLE-116" style="edgeStyle=orthogonalEdgeStyle;rounded=0;orthogonalLoop=1;jettySize=auto;html=1;endArrow=none;endFill=0;strokeColor=#0e8088;labelBackgroundColor=none;fontColor=default;fillColor=#b0e3e6;entryX=0.25;entryY=1;entryDx=0;entryDy=0;exitX=0.5;exitY=0;exitDx=0;exitDy=0;" edge="1" parent="1" source="GnCX_SDy-tHlvZ9ctZLE-115" target="GnCX_SDy-tHlvZ9ctZLE-36">
          <mxGeometry relative="1" as="geometry">
            <mxPoint x="-470" y="548" as="sourcePoint" />
            <mxPoint x="-520" y="638" as="targetPoint" />
          </mxGeometry>
        </mxCell>
        <mxCell id="GnCX_SDy-tHlvZ9ctZLE-117" value="Language" style="ellipse;whiteSpace=wrap;html=1;align=center;strokeColor=#B20000;labelBackgroundColor=none;fillColor=#e51400;fontColor=#ffffff;" vertex="1" parent="1">
          <mxGeometry x="410" y="318" width="100" height="40" as="geometry" />
        </mxCell>
        <mxCell id="GnCX_SDy-tHlvZ9ctZLE-118" style="rounded=0;orthogonalLoop=1;jettySize=auto;html=1;endArrow=none;endFill=0;strokeColor=#B20000;labelBackgroundColor=none;fontColor=default;fillColor=#e51400;entryX=0.11;entryY=-0.087;entryDx=0;entryDy=0;edgeStyle=orthogonalEdgeStyle;exitX=1;exitY=0.5;exitDx=0;exitDy=0;entryPerimeter=0;" edge="1" parent="1" source="GnCX_SDy-tHlvZ9ctZLE-117" target="GnCX_SDy-tHlvZ9ctZLE-2">
          <mxGeometry relative="1" as="geometry">
            <mxPoint x="505" y="468" as="targetPoint" />
            <mxPoint x="530" y="368" as="sourcePoint" />
          </mxGeometry>
        </mxCell>
        <mxCell id="GnCX_SDy-tHlvZ9ctZLE-119" style="rounded=0;orthogonalLoop=1;jettySize=auto;html=1;exitX=0.689;exitY=0.091;exitDx=0;exitDy=0;entryX=0.25;entryY=1;entryDx=0;entryDy=0;endArrow=none;endFill=0;strokeColor=#B20000;labelBackgroundColor=none;fontColor=default;fillColor=#e51400;exitPerimeter=0;" edge="1" parent="1" source="GnCX_SDy-tHlvZ9ctZLE-225" target="GnCX_SDy-tHlvZ9ctZLE-2">
          <mxGeometry relative="1" as="geometry">
            <mxPoint x="545.1455206038559" y="603.7744321365344" as="sourcePoint" />
            <mxPoint x="515" y="498" as="targetPoint" />
          </mxGeometry>
        </mxCell>
        <mxCell id="GnCX_SDy-tHlvZ9ctZLE-120" value="Movie_ID" style="ellipse;whiteSpace=wrap;html=1;align=center;fontStyle=4;fillColor=#e51400;fontColor=#ffffff;strokeColor=#B20000;" vertex="1" parent="1">
          <mxGeometry x="680" y="363" width="95" height="40" as="geometry" />
        </mxCell>
        <mxCell id="GnCX_SDy-tHlvZ9ctZLE-121" value="Has" style="shape=rhombus;perimeter=rhombusPerimeter;whiteSpace=wrap;html=1;align=center;strokeColor=#FFFFFF;labelBackgroundColor=none;fillColor=#182E3E;fontColor=#FFFFFF;" vertex="1" parent="1">
          <mxGeometry x="1015" y="908" width="130" height="60" as="geometry" />
        </mxCell>
        <mxCell id="GnCX_SDy-tHlvZ9ctZLE-122" value="" style="fontSize=12;html=1;endArrow=ERoneToMany;rounded=0;entryX=0.5;entryY=1;entryDx=0;entryDy=0;exitX=0.5;exitY=0;exitDx=0;exitDy=0;" edge="1" parent="1" source="GnCX_SDy-tHlvZ9ctZLE-121" target="GnCX_SDy-tHlvZ9ctZLE-19">
          <mxGeometry width="100" height="100" relative="1" as="geometry">
            <mxPoint x="1080" y="778" as="sourcePoint" />
            <mxPoint x="1080" y="808" as="targetPoint" />
          </mxGeometry>
        </mxCell>
        <mxCell id="GnCX_SDy-tHlvZ9ctZLE-123" value="Schedule_ID" style="ellipse;whiteSpace=wrap;html=1;align=center;fontStyle=4;strokeColor=#36393d;labelBackgroundColor=none;fillColor=#ffcc99;" vertex="1" parent="1">
          <mxGeometry x="1180" y="578" width="100" height="40" as="geometry" />
        </mxCell>
        <mxCell id="GnCX_SDy-tHlvZ9ctZLE-124" style="edgeStyle=orthogonalEdgeStyle;rounded=0;orthogonalLoop=1;jettySize=auto;html=1;endArrow=none;endFill=0;strokeColor=#36393d;labelBackgroundColor=none;fontColor=default;fillColor=#ffcc99;exitX=1;exitY=0.5;exitDx=0;exitDy=0;" edge="1" parent="1" source="GnCX_SDy-tHlvZ9ctZLE-19">
          <mxGeometry relative="1" as="geometry">
            <mxPoint x="1440" y="838" as="sourcePoint" />
            <mxPoint x="1180" y="598" as="targetPoint" />
          </mxGeometry>
        </mxCell>
        <mxCell id="GnCX_SDy-tHlvZ9ctZLE-125" value="Movie_ID (FK)" style="ellipse;whiteSpace=wrap;html=1;align=center;strokeColor=#36393d;labelBackgroundColor=none;fillColor=#ffcc99;" vertex="1" parent="1">
          <mxGeometry x="860" y="568" width="100" height="40" as="geometry" />
        </mxCell>
        <mxCell id="GnCX_SDy-tHlvZ9ctZLE-126" style="edgeStyle=orthogonalEdgeStyle;rounded=0;orthogonalLoop=1;jettySize=auto;html=1;exitX=1;exitY=0.5;exitDx=0;exitDy=0;endArrow=none;endFill=0;strokeColor=#36393d;labelBackgroundColor=none;fontColor=default;fillColor=#ffcc99;entryX=0;entryY=0.25;entryDx=0;entryDy=0;" edge="1" parent="1" source="GnCX_SDy-tHlvZ9ctZLE-125" target="GnCX_SDy-tHlvZ9ctZLE-19">
          <mxGeometry relative="1" as="geometry">
            <mxPoint x="990" y="578" as="sourcePoint" />
            <mxPoint x="1010" y="588" as="targetPoint" />
          </mxGeometry>
        </mxCell>
        <mxCell id="GnCX_SDy-tHlvZ9ctZLE-127" value="Adress" style="ellipse;whiteSpace=wrap;html=1;align=center;fillColor=#d80073;strokeColor=#A50040;fontColor=#ffffff;" vertex="1" parent="1">
          <mxGeometry x="600" y="828" width="90" height="40" as="geometry" />
        </mxCell>
        <mxCell id="GnCX_SDy-tHlvZ9ctZLE-128" value="City" style="ellipse;whiteSpace=wrap;html=1;align=center;fillColor=#d80073;fontColor=#ffffff;strokeColor=#A50040;" vertex="1" parent="1">
          <mxGeometry x="610" y="708" width="90" height="40" as="geometry" />
        </mxCell>
        <mxCell id="GnCX_SDy-tHlvZ9ctZLE-129" value="State" style="ellipse;whiteSpace=wrap;html=1;align=center;fillColor=#d80073;strokeColor=#A50040;fontColor=#ffffff;" vertex="1" parent="1">
          <mxGeometry x="720" y="758" width="90" height="40" as="geometry" />
        </mxCell>
        <mxCell id="GnCX_SDy-tHlvZ9ctZLE-130" value="" style="endArrow=none;html=1;rounded=0;exitX=0.75;exitY=0;exitDx=0;exitDy=0;fillColor=#d80073;strokeColor=#A50040;entryX=0.367;entryY=1.013;entryDx=0;entryDy=0;entryPerimeter=0;" edge="1" parent="1" source="GnCX_SDy-tHlvZ9ctZLE-8" target="GnCX_SDy-tHlvZ9ctZLE-127">
          <mxGeometry relative="1" as="geometry">
            <mxPoint x="575" y="788" as="sourcePoint" />
            <mxPoint x="620" y="878" as="targetPoint" />
          </mxGeometry>
        </mxCell>
        <mxCell id="GnCX_SDy-tHlvZ9ctZLE-131" value="" style="endArrow=none;html=1;rounded=0;fillColor=#d80073;strokeColor=#A50040;exitX=0.272;exitY=0.033;exitDx=0;exitDy=0;exitPerimeter=0;entryX=0.5;entryY=1;entryDx=0;entryDy=0;edgeStyle=orthogonalEdgeStyle;" edge="1" parent="1" source="GnCX_SDy-tHlvZ9ctZLE-127" target="GnCX_SDy-tHlvZ9ctZLE-128">
          <mxGeometry relative="1" as="geometry">
            <mxPoint x="630" y="820" as="sourcePoint" />
            <mxPoint x="640" y="780" as="targetPoint" />
          </mxGeometry>
        </mxCell>
        <mxCell id="GnCX_SDy-tHlvZ9ctZLE-132" value="" style="endArrow=none;html=1;rounded=0;entryX=0;entryY=0.5;entryDx=0;entryDy=0;fillColor=#d80073;strokeColor=#A50040;exitX=0.5;exitY=0;exitDx=0;exitDy=0;" edge="1" parent="1" source="GnCX_SDy-tHlvZ9ctZLE-127" target="GnCX_SDy-tHlvZ9ctZLE-129">
          <mxGeometry relative="1" as="geometry">
            <mxPoint x="663" y="827" as="sourcePoint" />
            <mxPoint x="692.5" y="708" as="targetPoint" />
            <Array as="points">
              <mxPoint x="670" y="778" />
            </Array>
          </mxGeometry>
        </mxCell>
        <mxCell id="GnCX_SDy-tHlvZ9ctZLE-133" value="Street_Number" style="ellipse;whiteSpace=wrap;html=1;align=center;fillColor=#d80073;strokeColor=#A50040;fontColor=#ffffff;" vertex="1" parent="1">
          <mxGeometry x="745" y="828" width="90" height="40" as="geometry" />
        </mxCell>
        <mxCell id="GnCX_SDy-tHlvZ9ctZLE-134" style="rounded=0;orthogonalLoop=1;jettySize=auto;html=1;entryX=0;entryY=0.5;entryDx=0;entryDy=0;strokeColor=#A50040;endArrow=none;endFill=0;fillColor=#d80073;exitX=1;exitY=0.5;exitDx=0;exitDy=0;" edge="1" parent="1" source="GnCX_SDy-tHlvZ9ctZLE-127" target="GnCX_SDy-tHlvZ9ctZLE-133">
          <mxGeometry relative="1" as="geometry">
            <mxPoint x="660" y="758" as="sourcePoint" />
            <mxPoint x="895" y="958" as="targetPoint" />
          </mxGeometry>
        </mxCell>
        <mxCell id="GnCX_SDy-tHlvZ9ctZLE-136" value="Movie_ID (FK)" style="ellipse;whiteSpace=wrap;html=1;align=center;strokeColor=#A50040;labelBackgroundColor=none;fillColor=#d80073;fontColor=#ffffff;" vertex="1" parent="1">
          <mxGeometry x="325" y="861" width="100" height="40" as="geometry" />
        </mxCell>
        <mxCell id="GnCX_SDy-tHlvZ9ctZLE-137" style="rounded=0;orthogonalLoop=1;jettySize=auto;html=1;strokeColor=#A50040;endArrow=none;endFill=0;entryX=0;entryY=0.75;entryDx=0;entryDy=0;fillColor=#d80073;exitX=1;exitY=0.5;exitDx=0;exitDy=0;edgeStyle=orthogonalEdgeStyle;" edge="1" parent="1" source="GnCX_SDy-tHlvZ9ctZLE-136" target="GnCX_SDy-tHlvZ9ctZLE-8">
          <mxGeometry relative="1" as="geometry">
            <mxPoint x="530" y="838" as="targetPoint" />
            <mxPoint x="480" y="898" as="sourcePoint" />
          </mxGeometry>
        </mxCell>
        <mxCell id="GnCX_SDy-tHlvZ9ctZLE-138" style="rounded=0;orthogonalLoop=1;jettySize=auto;html=1;entryX=0.5;entryY=1;entryDx=0;entryDy=0;endArrow=ERoneToMany;endFill=0;exitX=0.5;exitY=0;exitDx=0;exitDy=0;" edge="1" parent="1" source="GnCX_SDy-tHlvZ9ctZLE-88" target="GnCX_SDy-tHlvZ9ctZLE-80">
          <mxGeometry relative="1" as="geometry">
            <mxPoint x="-10" y="138" as="sourcePoint" />
            <mxPoint x="40" y="-172" as="targetPoint" />
          </mxGeometry>
        </mxCell>
        <mxCell id="GnCX_SDy-tHlvZ9ctZLE-139" value="" style="fontSize=12;html=1;endArrow=ERoneToMany;rounded=0;entryX=0.5;entryY=0;entryDx=0;entryDy=0;edgeStyle=orthogonalEdgeStyle;exitX=1;exitY=0.5;exitDx=0;exitDy=0;" edge="1" parent="1" source="GnCX_SDy-tHlvZ9ctZLE-18" target="GnCX_SDy-tHlvZ9ctZLE-19">
          <mxGeometry width="100" height="100" relative="1" as="geometry">
            <mxPoint x="1080" y="518" as="sourcePoint" />
            <mxPoint x="1090" y="568" as="targetPoint" />
          </mxGeometry>
        </mxCell>
        <mxCell id="GnCX_SDy-tHlvZ9ctZLE-140" value="City" style="ellipse;whiteSpace=wrap;html=1;align=center;fillColor=#dae8fc;strokeColor=#6c8ebf;gradientColor=#7ea6e0;" vertex="1" parent="1">
          <mxGeometry x="170" y="-272" width="90" height="40" as="geometry" />
        </mxCell>
        <mxCell id="GnCX_SDy-tHlvZ9ctZLE-141" value="State" style="ellipse;whiteSpace=wrap;html=1;align=center;fillColor=#dae8fc;strokeColor=#6c8ebf;gradientColor=#7ea6e0;" vertex="1" parent="1">
          <mxGeometry x="260" y="-242" width="90" height="40" as="geometry" />
        </mxCell>
        <mxCell id="GnCX_SDy-tHlvZ9ctZLE-142" value="" style="endArrow=none;html=1;rounded=0;entryX=0;entryY=0.5;entryDx=0;entryDy=0;fillColor=#dae8fc;strokeColor=#6c8ebf;gradientColor=#7ea6e0;" edge="1" parent="1" target="GnCX_SDy-tHlvZ9ctZLE-141">
          <mxGeometry relative="1" as="geometry">
            <mxPoint x="240" y="-110" as="sourcePoint" />
            <mxPoint x="225" y="-212" as="targetPoint" />
            <Array as="points">
              <mxPoint x="240" y="-222" />
            </Array>
          </mxGeometry>
        </mxCell>
        <mxCell id="GnCX_SDy-tHlvZ9ctZLE-143" value="Street_Number" style="ellipse;whiteSpace=wrap;html=1;align=center;fillColor=#dae8fc;strokeColor=#6c8ebf;gradientColor=#7ea6e0;" vertex="1" parent="1">
          <mxGeometry x="115" y="-212" width="90" height="40" as="geometry" />
        </mxCell>
        <mxCell id="GnCX_SDy-tHlvZ9ctZLE-144" style="rounded=0;orthogonalLoop=1;jettySize=auto;html=1;strokeColor=#6c8ebf;endArrow=none;endFill=0;fillColor=#dae8fc;exitX=0.321;exitY=0.037;exitDx=0;exitDy=0;gradientColor=#7ea6e0;exitPerimeter=0;" edge="1" parent="1" source="GnCX_SDy-tHlvZ9ctZLE-86" target="GnCX_SDy-tHlvZ9ctZLE-143">
          <mxGeometry relative="1" as="geometry">
            <mxPoint x="170" y="-162" as="sourcePoint" />
            <mxPoint x="175" y="-132" as="targetPoint" />
          </mxGeometry>
        </mxCell>
        <mxCell id="GnCX_SDy-tHlvZ9ctZLE-145" value="Login" style="whiteSpace=wrap;html=1;align=center;strokeColor=#666666;fillColor=#f5f5f5;labelBackgroundColor=none;gradientColor=#b3b3b3;" vertex="1" parent="1">
          <mxGeometry x="-630" y="-7" width="100" height="60" as="geometry" />
        </mxCell>
        <mxCell id="GnCX_SDy-tHlvZ9ctZLE-146" value="Login_ID" style="ellipse;whiteSpace=wrap;html=1;align=center;fontStyle=4;strokeColor=#666666;fillColor=#f5f5f5;labelBackgroundColor=none;gradientColor=#b3b3b3;" vertex="1" parent="1">
          <mxGeometry x="-805" y="-127" width="100" height="40" as="geometry" />
        </mxCell>
        <mxCell id="GnCX_SDy-tHlvZ9ctZLE-147" value="Name" style="ellipse;whiteSpace=wrap;html=1;align=center;strokeColor=#666666;fillColor=#f5f5f5;labelBackgroundColor=none;gradientColor=#b3b3b3;" vertex="1" parent="1">
          <mxGeometry x="-640" y="-132" width="100" height="40" as="geometry" />
        </mxCell>
        <mxCell id="GnCX_SDy-tHlvZ9ctZLE-148" value="LastName" style="ellipse;whiteSpace=wrap;html=1;align=center;strokeColor=#666666;fillColor=#f5f5f5;labelBackgroundColor=none;gradientColor=#b3b3b3;" vertex="1" parent="1">
          <mxGeometry x="-580" y="-222" width="100" height="40" as="geometry" />
        </mxCell>
        <mxCell id="GnCX_SDy-tHlvZ9ctZLE-149" value="Login_Customer" style="shape=rhombus;perimeter=rhombusPerimeter;whiteSpace=wrap;html=1;align=center;strokeColor=#FFFFFF;labelBackgroundColor=none;fillColor=#182E3E;fontColor=#FFFFFF;" vertex="1" parent="1">
          <mxGeometry x="-370" y="-7" width="120" height="60" as="geometry" />
        </mxCell>
        <mxCell id="GnCX_SDy-tHlvZ9ctZLE-150" value="" style="endArrow=none;html=1;rounded=0;entryX=0.924;entryY=0.715;entryDx=0;entryDy=0;elbow=vertical;exitX=0.127;exitY=-0.01;exitDx=0;exitDy=0;exitPerimeter=0;fillColor=#f5f5f5;gradientColor=#b3b3b3;strokeColor=#666666;entryPerimeter=0;" edge="1" parent="1" source="GnCX_SDy-tHlvZ9ctZLE-145" target="GnCX_SDy-tHlvZ9ctZLE-146">
          <mxGeometry width="50" height="50" relative="1" as="geometry">
            <mxPoint x="-620" y="-12" as="sourcePoint" />
            <mxPoint x="-680" y="-22" as="targetPoint" />
            <Array as="points">
              <mxPoint x="-650" y="-72" />
            </Array>
          </mxGeometry>
        </mxCell>
        <mxCell id="GnCX_SDy-tHlvZ9ctZLE-151" value="" style="endArrow=none;html=1;rounded=0;edgeStyle=elbowEdgeStyle;elbow=vertical;exitX=0.5;exitY=0;exitDx=0;exitDy=0;fillColor=#f5f5f5;gradientColor=#b3b3b3;strokeColor=#666666;entryX=0.5;entryY=1;entryDx=0;entryDy=0;" edge="1" parent="1" target="GnCX_SDy-tHlvZ9ctZLE-147">
          <mxGeometry width="50" height="50" relative="1" as="geometry">
            <mxPoint x="-590" y="-7" as="sourcePoint" />
            <mxPoint x="-590" y="-82" as="targetPoint" />
          </mxGeometry>
        </mxCell>
        <mxCell id="GnCX_SDy-tHlvZ9ctZLE-152" style="rounded=0;orthogonalLoop=1;jettySize=auto;html=1;exitX=0.5;exitY=1;exitDx=0;exitDy=0;endArrow=none;endFill=0;strokeColor=#666666;fillColor=#f5f5f5;gradientColor=#b3b3b3;entryX=0.67;entryY=0.075;entryDx=0;entryDy=0;entryPerimeter=0;" edge="1" parent="1" source="GnCX_SDy-tHlvZ9ctZLE-148" target="GnCX_SDy-tHlvZ9ctZLE-147">
          <mxGeometry relative="1" as="geometry">
            <mxPoint x="-560" y="-182" as="sourcePoint" />
            <mxPoint x="-565" y="-132" as="targetPoint" />
          </mxGeometry>
        </mxCell>
        <mxCell id="GnCX_SDy-tHlvZ9ctZLE-153" value="Email_Address" style="ellipse;whiteSpace=wrap;html=1;align=center;strokeColor=#666666;fillColor=#f5f5f5;labelBackgroundColor=none;gradientColor=#b3b3b3;" vertex="1" parent="1">
          <mxGeometry x="-525" y="-122" width="110" height="40" as="geometry" />
        </mxCell>
        <mxCell id="GnCX_SDy-tHlvZ9ctZLE-154" value="" style="endArrow=none;html=1;rounded=0;exitX=0.75;exitY=0;exitDx=0;exitDy=0;entryX=0.336;entryY=0.943;entryDx=0;entryDy=0;entryPerimeter=0;fillColor=#f5f5f5;gradientColor=#b3b3b3;strokeColor=#666666;" edge="1" parent="1" source="GnCX_SDy-tHlvZ9ctZLE-145" target="GnCX_SDy-tHlvZ9ctZLE-153">
          <mxGeometry width="50" height="50" relative="1" as="geometry">
            <mxPoint x="-500" y="-62" as="sourcePoint" />
            <mxPoint x="-480" y="-122" as="targetPoint" />
            <Array as="points">
              <mxPoint x="-490" y="-7" />
            </Array>
          </mxGeometry>
        </mxCell>
        <mxCell id="GnCX_SDy-tHlvZ9ctZLE-155" value="Password" style="ellipse;whiteSpace=wrap;html=1;align=center;strokeColor=#666666;fillColor=#f5f5f5;labelBackgroundColor=none;gradientColor=#b3b3b3;" vertex="1" parent="1">
          <mxGeometry x="-800" y="-62" width="110" height="40" as="geometry" />
        </mxCell>
        <mxCell id="GnCX_SDy-tHlvZ9ctZLE-156" value="Confirm_Password" style="ellipse;whiteSpace=wrap;html=1;align=center;strokeColor=#666666;fillColor=#f5f5f5;labelBackgroundColor=none;gradientColor=#b3b3b3;" vertex="1" parent="1">
          <mxGeometry x="-810" y="25" width="110" height="40" as="geometry" />
        </mxCell>
        <mxCell id="GnCX_SDy-tHlvZ9ctZLE-157" value="Gender" style="ellipse;whiteSpace=wrap;html=1;align=center;strokeColor=#666666;fillColor=#f5f5f5;labelBackgroundColor=none;gradientColor=#b3b3b3;" vertex="1" parent="1">
          <mxGeometry x="-450" y="-72" width="90" height="40" as="geometry" />
        </mxCell>
        <mxCell id="GnCX_SDy-tHlvZ9ctZLE-158" value="" style="endArrow=none;html=1;rounded=0;edgeStyle=orthogonalEdgeStyle;exitX=1;exitY=0.25;exitDx=0;exitDy=0;entryX=0.5;entryY=1;entryDx=0;entryDy=0;fillColor=#f5f5f5;gradientColor=#b3b3b3;strokeColor=#666666;" edge="1" parent="1" source="GnCX_SDy-tHlvZ9ctZLE-145" target="GnCX_SDy-tHlvZ9ctZLE-157">
          <mxGeometry width="50" height="50" relative="1" as="geometry">
            <mxPoint x="-520" y="8" as="sourcePoint" />
            <mxPoint x="-430" y="-62" as="targetPoint" />
          </mxGeometry>
        </mxCell>
        <mxCell id="GnCX_SDy-tHlvZ9ctZLE-159" value="" style="endArrow=none;html=1;rounded=0;exitX=1;exitY=0.5;exitDx=0;exitDy=0;fillColor=#f5f5f5;gradientColor=#b3b3b3;strokeColor=#666666;entryX=0;entryY=0.5;entryDx=0;entryDy=0;edgeStyle=elbowEdgeStyle;" edge="1" parent="1" source="GnCX_SDy-tHlvZ9ctZLE-155" target="GnCX_SDy-tHlvZ9ctZLE-145">
          <mxGeometry width="50" height="50" relative="1" as="geometry">
            <mxPoint x="-680" y="48" as="sourcePoint" />
            <mxPoint x="-630" y="-2" as="targetPoint" />
          </mxGeometry>
        </mxCell>
        <mxCell id="GnCX_SDy-tHlvZ9ctZLE-160" value="" style="endArrow=none;html=1;rounded=0;exitX=1;exitY=0.5;exitDx=0;exitDy=0;fillColor=#f5f5f5;gradientColor=#b3b3b3;strokeColor=#666666;entryX=-0.015;entryY=0.867;entryDx=0;entryDy=0;entryPerimeter=0;" edge="1" parent="1" source="GnCX_SDy-tHlvZ9ctZLE-156" target="GnCX_SDy-tHlvZ9ctZLE-145">
          <mxGeometry width="50" height="50" relative="1" as="geometry">
            <mxPoint x="-680" y="78" as="sourcePoint" />
            <mxPoint x="-630" y="28" as="targetPoint" />
          </mxGeometry>
        </mxCell>
        <mxCell id="GnCX_SDy-tHlvZ9ctZLE-161" value="Login_ID (FK)" style="ellipse;whiteSpace=wrap;html=1;align=center;strokeColor=#6c8ebf;fillColor=#dae8fc;labelBackgroundColor=none;gradientColor=#7ea6e0;" vertex="1" parent="1">
          <mxGeometry x="-25" y="128" width="100" height="40" as="geometry" />
        </mxCell>
        <mxCell id="GnCX_SDy-tHlvZ9ctZLE-162" value="" style="endArrow=none;html=1;rounded=0;exitX=0.5;exitY=0;exitDx=0;exitDy=0;fillColor=#dae8fc;gradientColor=#7ea6e0;strokeColor=#6c8ebf;entryX=0;entryY=1;entryDx=0;entryDy=0;" edge="1" parent="1" source="GnCX_SDy-tHlvZ9ctZLE-161" target="GnCX_SDy-tHlvZ9ctZLE-80">
          <mxGeometry width="50" height="50" relative="1" as="geometry">
            <mxPoint y="108" as="sourcePoint" />
            <mxPoint x="50" y="58" as="targetPoint" />
          </mxGeometry>
        </mxCell>
        <mxCell id="GnCX_SDy-tHlvZ9ctZLE-163" value="&lt;b&gt;&lt;font style=&quot;font-size: 17px;&quot;&gt;1&lt;/font&gt;&lt;/b&gt;" style="text;html=1;align=center;verticalAlign=middle;whiteSpace=wrap;rounded=0;" vertex="1" parent="1">
          <mxGeometry x="125" y="-7" width="60" height="30" as="geometry" />
        </mxCell>
        <mxCell id="GnCX_SDy-tHlvZ9ctZLE-164" value="&lt;span style=&quot;font-size: 17px;&quot;&gt;&lt;b&gt;M&lt;/b&gt;&lt;/span&gt;" style="text;html=1;align=center;verticalAlign=middle;whiteSpace=wrap;rounded=0;" vertex="1" parent="1">
          <mxGeometry x="460" y="-192" width="60" height="30" as="geometry" />
        </mxCell>
        <mxCell id="GnCX_SDy-tHlvZ9ctZLE-165" value="&lt;b&gt;&lt;font style=&quot;font-size: 17px;&quot;&gt;1&lt;/font&gt;&lt;/b&gt;" style="text;html=1;align=center;verticalAlign=middle;whiteSpace=wrap;rounded=0;" vertex="1" parent="1">
          <mxGeometry x="135" y="35" width="60" height="30" as="geometry" />
        </mxCell>
        <mxCell id="GnCX_SDy-tHlvZ9ctZLE-166" value="&lt;span style=&quot;font-size: 17px;&quot;&gt;&lt;b&gt;M&lt;/b&gt;&lt;/span&gt;" style="text;html=1;align=center;verticalAlign=middle;whiteSpace=wrap;rounded=0;" vertex="1" parent="1">
          <mxGeometry x="1020" y="88" width="60" height="30" as="geometry" />
        </mxCell>
        <mxCell id="GnCX_SDy-tHlvZ9ctZLE-167" style="edgeStyle=orthogonalEdgeStyle;rounded=0;orthogonalLoop=1;jettySize=auto;html=1;exitX=0.5;exitY=1;exitDx=0;exitDy=0;" edge="1" parent="1" source="GnCX_SDy-tHlvZ9ctZLE-73" target="GnCX_SDy-tHlvZ9ctZLE-73">
          <mxGeometry relative="1" as="geometry" />
        </mxCell>
        <mxCell id="GnCX_SDy-tHlvZ9ctZLE-168" value="" style="endArrow=none;html=1;rounded=0;exitX=0.5;exitY=0;exitDx=0;exitDy=0;entryX=0.5;entryY=1;entryDx=0;entryDy=0;fillColor=#dae8fc;gradientColor=#7ea6e0;strokeColor=#6c8ebf;" edge="1" parent="1" source="GnCX_SDy-tHlvZ9ctZLE-86" target="GnCX_SDy-tHlvZ9ctZLE-140">
          <mxGeometry width="50" height="50" relative="1" as="geometry">
            <mxPoint x="220" y="-132" as="sourcePoint" />
            <mxPoint x="220" y="-232" as="targetPoint" />
          </mxGeometry>
        </mxCell>
        <mxCell id="GnCX_SDy-tHlvZ9ctZLE-169" value="" style="rounded=0;orthogonalLoop=1;jettySize=auto;html=1;endArrow=none;endFill=0;strokeColor=#666666;fillColor=#f5f5f5;gradientColor=#b3b3b3;exitX=0.3;exitY=0.05;exitDx=0;exitDy=0;exitPerimeter=0;entryX=0.5;entryY=1;entryDx=0;entryDy=0;" edge="1" parent="1" source="GnCX_SDy-tHlvZ9ctZLE-147" target="GnCX_SDy-tHlvZ9ctZLE-170">
          <mxGeometry relative="1" as="geometry">
            <mxPoint x="-630" y="-172" as="sourcePoint" />
            <mxPoint x="-670" y="-172" as="targetPoint" />
          </mxGeometry>
        </mxCell>
        <mxCell id="GnCX_SDy-tHlvZ9ctZLE-170" value="FirstName" style="ellipse;whiteSpace=wrap;html=1;align=center;strokeColor=#666666;fillColor=#f5f5f5;labelBackgroundColor=none;gradientColor=#b3b3b3;" vertex="1" parent="1">
          <mxGeometry x="-720" y="-222" width="100" height="40" as="geometry" />
        </mxCell>
        <mxCell id="GnCX_SDy-tHlvZ9ctZLE-171" value="&lt;font color=&quot;#000000&quot;&gt;Movie_ID (FK)&lt;/font&gt;" style="ellipse;whiteSpace=wrap;html=1;align=center;strokeColor=#9673a6;labelBackgroundColor=none;fillColor=#e1d5e7;" vertex="1" parent="1">
          <mxGeometry x="1205" y="238" width="100" height="40" as="geometry" />
        </mxCell>
        <mxCell id="GnCX_SDy-tHlvZ9ctZLE-172" value="&lt;font color=&quot;#000000&quot;&gt;Name&lt;/font&gt;" style="ellipse;whiteSpace=wrap;html=1;align=center;strokeColor=#9673a6;labelBackgroundColor=none;fillColor=#e1d5e7;" vertex="1" parent="1">
          <mxGeometry x="1340" y="238" width="100" height="40" as="geometry" />
        </mxCell>
        <mxCell id="GnCX_SDy-tHlvZ9ctZLE-173" value="" style="endArrow=none;html=1;rounded=0;entryX=0.5;entryY=1;entryDx=0;entryDy=0;exitX=0.5;exitY=0;exitDx=0;exitDy=0;edgeStyle=orthogonalEdgeStyle;fillColor=#e1d5e7;strokeColor=#9673a6;" edge="1" parent="1" source="GnCX_SDy-tHlvZ9ctZLE-224" target="GnCX_SDy-tHlvZ9ctZLE-171">
          <mxGeometry width="50" height="50" relative="1" as="geometry">
            <mxPoint x="1290" y="348" as="sourcePoint" />
            <mxPoint x="1420" y="323" as="targetPoint" />
          </mxGeometry>
        </mxCell>
        <mxCell id="GnCX_SDy-tHlvZ9ctZLE-174" value="" style="endArrow=none;html=1;rounded=0;entryX=0.26;entryY=0.931;entryDx=0;entryDy=0;entryPerimeter=0;fillColor=#e1d5e7;strokeColor=#9673a6;exitX=0.75;exitY=0;exitDx=0;exitDy=0;" edge="1" parent="1" source="GnCX_SDy-tHlvZ9ctZLE-224" target="GnCX_SDy-tHlvZ9ctZLE-172">
          <mxGeometry width="50" height="50" relative="1" as="geometry">
            <mxPoint x="1310" y="350" as="sourcePoint" />
            <mxPoint x="1385" y="408" as="targetPoint" />
          </mxGeometry>
        </mxCell>
        <mxCell id="GnCX_SDy-tHlvZ9ctZLE-175" value="&lt;b&gt;&lt;font style=&quot;font-size: 17px;&quot;&gt;1&lt;/font&gt;&lt;/b&gt;" style="text;html=1;align=center;verticalAlign=middle;whiteSpace=wrap;rounded=0;" vertex="1" parent="1">
          <mxGeometry x="75" y="403" width="60" height="30" as="geometry" />
        </mxCell>
        <mxCell id="GnCX_SDy-tHlvZ9ctZLE-176" value="&lt;span style=&quot;font-size: 17px;&quot;&gt;&lt;b&gt;M&lt;/b&gt;&lt;/span&gt;" style="text;html=1;align=center;verticalAlign=middle;whiteSpace=wrap;rounded=0;" vertex="1" parent="1">
          <mxGeometry x="46" y="65" width="60" height="30" as="geometry" />
        </mxCell>
        <mxCell id="GnCX_SDy-tHlvZ9ctZLE-177" value="" style="fontSize=12;html=1;endArrow=ERmandOne;rounded=0;entryX=1;entryY=0.5;entryDx=0;entryDy=0;exitX=0.058;exitY=0.517;exitDx=0;exitDy=0;exitPerimeter=0;" edge="1" parent="1" source="GnCX_SDy-tHlvZ9ctZLE-149" target="GnCX_SDy-tHlvZ9ctZLE-145">
          <mxGeometry width="100" height="100" relative="1" as="geometry">
            <mxPoint x="-359" y="25" as="sourcePoint" />
            <mxPoint x="-530" y="23" as="targetPoint" />
          </mxGeometry>
        </mxCell>
        <mxCell id="GnCX_SDy-tHlvZ9ctZLE-178" value="" style="fontSize=12;html=1;endArrow=ERmandOne;rounded=0;entryX=0.005;entryY=0.407;entryDx=0;entryDy=0;exitX=0.921;exitY=0.442;exitDx=0;exitDy=0;exitPerimeter=0;entryPerimeter=0;" edge="1" parent="1" source="GnCX_SDy-tHlvZ9ctZLE-149" target="GnCX_SDy-tHlvZ9ctZLE-80">
          <mxGeometry width="100" height="100" relative="1" as="geometry">
            <mxPoint x="-260" y="23" as="sourcePoint" />
            <mxPoint x="40" y="23" as="targetPoint" />
          </mxGeometry>
        </mxCell>
        <mxCell id="GnCX_SDy-tHlvZ9ctZLE-179" value="" style="fontSize=12;html=1;endArrow=ERmandOne;rounded=0;entryX=0.25;entryY=1;entryDx=0;entryDy=0;exitX=0.042;exitY=0.5;exitDx=0;exitDy=0;exitPerimeter=0;" edge="1" parent="1" source="GnCX_SDy-tHlvZ9ctZLE-78" target="GnCX_SDy-tHlvZ9ctZLE-163">
          <mxGeometry width="100" height="100" relative="1" as="geometry">
            <mxPoint x="285" y="23" as="sourcePoint" />
            <mxPoint x="145" y="33" as="targetPoint" />
          </mxGeometry>
        </mxCell>
        <mxCell id="GnCX_SDy-tHlvZ9ctZLE-180" value="" style="fontSize=12;html=1;endArrow=ERzeroToOne;endFill=1;rounded=0;exitX=0;exitY=0.5;exitDx=0;exitDy=0;entryX=1;entryY=1;entryDx=0;entryDy=0;" edge="1" parent="1" source="GnCX_SDy-tHlvZ9ctZLE-103" target="GnCX_SDy-tHlvZ9ctZLE-80">
          <mxGeometry width="100" height="100" relative="1" as="geometry">
            <mxPoint x="792" y="108" as="sourcePoint" />
            <mxPoint x="210" y="40" as="targetPoint" />
            <Array as="points">
              <mxPoint x="310" y="110" />
              <mxPoint x="310" y="60" />
            </Array>
          </mxGeometry>
        </mxCell>
        <mxCell id="GnCX_SDy-tHlvZ9ctZLE-181" value="" style="fontSize=12;html=1;endArrow=ERzeroToMany;endFill=1;rounded=0;entryX=0;entryY=0.75;entryDx=0;entryDy=0;edgeStyle=elbowEdgeStyle;exitX=1;exitY=0.5;exitDx=0;exitDy=0;" edge="1" parent="1" source="GnCX_SDy-tHlvZ9ctZLE-103">
          <mxGeometry width="100" height="100" relative="1" as="geometry">
            <mxPoint x="860" y="108" as="sourcePoint" />
            <mxPoint x="1075" y="118" as="targetPoint" />
          </mxGeometry>
        </mxCell>
        <mxCell id="GnCX_SDy-tHlvZ9ctZLE-182" value="" style="fontSize=12;html=1;endArrow=ERmandOne;rounded=0;exitX=0.5;exitY=1;exitDx=0;exitDy=0;entryX=0.593;entryY=-0.019;entryDx=0;entryDy=0;entryPerimeter=0;" edge="1" parent="1" target="GnCX_SDy-tHlvZ9ctZLE-28">
          <mxGeometry width="100" height="100" relative="1" as="geometry">
            <mxPoint x="90" y="278" as="sourcePoint" />
            <mxPoint x="103" y="438" as="targetPoint" />
          </mxGeometry>
        </mxCell>
        <mxCell id="GnCX_SDy-tHlvZ9ctZLE-183" value="" style="fontSize=12;html=1;endArrow=ERoneToMany;rounded=0;exitX=0.5;exitY=1;exitDx=0;exitDy=0;entryX=0.3;entryY=0;entryDx=0;entryDy=0;entryPerimeter=0;" edge="1" parent="1">
          <mxGeometry width="100" height="100" relative="1" as="geometry">
            <mxPoint x="552" y="228" as="sourcePoint" />
            <mxPoint x="552" y="458" as="targetPoint" />
          </mxGeometry>
        </mxCell>
        <mxCell id="GnCX_SDy-tHlvZ9ctZLE-184" value="" style="fontSize=12;html=1;endArrow=ERzeroToMany;endFill=1;rounded=0;entryX=0.5;entryY=1;entryDx=0;entryDy=0;exitX=0.5;exitY=0;exitDx=0;exitDy=0;" edge="1" parent="1" source="GnCX_SDy-tHlvZ9ctZLE-79" target="GnCX_SDy-tHlvZ9ctZLE-68">
          <mxGeometry width="100" height="100" relative="1" as="geometry">
            <mxPoint x="970" y="268" as="sourcePoint" />
            <mxPoint x="1091" y="131" as="targetPoint" />
          </mxGeometry>
        </mxCell>
        <mxCell id="GnCX_SDy-tHlvZ9ctZLE-185" value="" style="fontSize=12;html=1;endArrow=ERzeroToOne;endFill=1;rounded=0;edgeStyle=orthogonalEdgeStyle;entryX=0.5;entryY=0;entryDx=0;entryDy=0;exitX=0;exitY=0.5;exitDx=0;exitDy=0;" edge="1" parent="1" source="GnCX_SDy-tHlvZ9ctZLE-79">
          <mxGeometry width="100" height="100" relative="1" as="geometry">
            <mxPoint x="910" y="268" as="sourcePoint" />
            <mxPoint x="570" y="458" as="targetPoint" />
          </mxGeometry>
        </mxCell>
        <mxCell id="GnCX_SDy-tHlvZ9ctZLE-186" value="" style="fontSize=12;html=1;endArrow=ERmandOne;rounded=0;entryX=1;entryY=0.25;entryDx=0;entryDy=0;exitX=0;exitY=0.5;exitDx=0;exitDy=0;" edge="1" parent="1" target="GnCX_SDy-tHlvZ9ctZLE-2">
          <mxGeometry width="100" height="100" relative="1" as="geometry">
            <mxPoint x="970" y="378" as="sourcePoint" />
            <mxPoint x="660" y="433" as="targetPoint" />
            <Array as="points">
              <mxPoint x="830" y="378" />
              <mxPoint x="830" y="468" />
            </Array>
          </mxGeometry>
        </mxCell>
        <mxCell id="GnCX_SDy-tHlvZ9ctZLE-187" style="rounded=0;orthogonalLoop=1;jettySize=auto;html=1;entryX=1;entryY=1;entryDx=0;entryDy=0;endArrow=ERoneToMany;endFill=0;exitX=1;exitY=0.5;exitDx=0;exitDy=0;" edge="1" parent="1" source="GnCX_SDy-tHlvZ9ctZLE-223" target="GnCX_SDy-tHlvZ9ctZLE-206">
          <mxGeometry relative="1" as="geometry">
            <mxPoint x="1083.04" y="378" as="sourcePoint" />
            <mxPoint x="1230" y="378" as="targetPoint" />
          </mxGeometry>
        </mxCell>
        <mxCell id="GnCX_SDy-tHlvZ9ctZLE-188" value="" style="fontSize=12;html=1;endArrow=ERzeroToMany;endFill=1;rounded=0;entryX=0;entryY=0.25;entryDx=0;entryDy=0;exitX=0.5;exitY=1;exitDx=0;exitDy=0;" edge="1" parent="1" source="GnCX_SDy-tHlvZ9ctZLE-26" target="GnCX_SDy-tHlvZ9ctZLE-2">
          <mxGeometry width="100" height="100" relative="1" as="geometry">
            <mxPoint x="340" y="478" as="sourcePoint" />
            <mxPoint x="520" y="478" as="targetPoint" />
            <Array as="points">
              <mxPoint x="290" y="470" />
            </Array>
          </mxGeometry>
        </mxCell>
        <mxCell id="GnCX_SDy-tHlvZ9ctZLE-189" value="" style="fontSize=12;html=1;endArrow=ERmandOne;rounded=0;entryX=1;entryY=0.75;entryDx=0;entryDy=0;" edge="1" parent="1" target="GnCX_SDy-tHlvZ9ctZLE-2">
          <mxGeometry width="100" height="100" relative="1" as="geometry">
            <mxPoint x="900" y="488" as="sourcePoint" />
            <mxPoint x="620" y="478" as="targetPoint" />
          </mxGeometry>
        </mxCell>
        <mxCell id="GnCX_SDy-tHlvZ9ctZLE-190" value="" style="fontSize=12;html=1;endArrow=ERmandOne;rounded=0;entryX=1;entryY=0;entryDx=0;entryDy=0;edgeStyle=elbowEdgeStyle;exitX=0;exitY=0.5;exitDx=0;exitDy=0;" edge="1" parent="1" target="GnCX_SDy-tHlvZ9ctZLE-15">
          <mxGeometry width="100" height="100" relative="1" as="geometry">
            <mxPoint x="1015" y="939" as="sourcePoint" />
            <mxPoint x="620" y="1139" as="targetPoint" />
          </mxGeometry>
        </mxCell>
        <mxCell id="GnCX_SDy-tHlvZ9ctZLE-191" value="" style="fontSize=12;html=1;endArrow=ERmandOne;rounded=0;exitX=0.5;exitY=1;exitDx=0;exitDy=0;entryX=0.5;entryY=0;entryDx=0;entryDy=0;" edge="1" parent="1" target="GnCX_SDy-tHlvZ9ctZLE-8">
          <mxGeometry width="100" height="100" relative="1" as="geometry">
            <mxPoint x="570" y="698" as="sourcePoint" />
            <mxPoint x="570" y="798" as="targetPoint" />
          </mxGeometry>
        </mxCell>
        <mxCell id="GnCX_SDy-tHlvZ9ctZLE-192" value="" style="fontSize=12;html=1;endArrow=ERmandOne;rounded=0;exitX=0.5;exitY=0;exitDx=0;exitDy=0;entryX=0.5;entryY=1;entryDx=0;entryDy=0;" edge="1" parent="1" target="GnCX_SDy-tHlvZ9ctZLE-8">
          <mxGeometry width="100" height="100" relative="1" as="geometry">
            <mxPoint x="570" y="1018" as="sourcePoint" />
            <mxPoint x="570" y="988" as="targetPoint" />
          </mxGeometry>
        </mxCell>
        <mxCell id="GnCX_SDy-tHlvZ9ctZLE-193" value="" style="fontSize=12;html=1;endArrow=ERmandOne;rounded=0;entryX=1;entryY=0.5;entryDx=0;entryDy=0;" edge="1" parent="1">
          <mxGeometry width="100" height="100" relative="1" as="geometry">
            <mxPoint x="-230" y="478" as="sourcePoint" />
            <mxPoint x="-350" y="478" as="targetPoint" />
            <Array as="points">
              <mxPoint x="-300" y="477.37" />
            </Array>
          </mxGeometry>
        </mxCell>
        <mxCell id="GnCX_SDy-tHlvZ9ctZLE-194" value="&lt;b&gt;&lt;font style=&quot;font-size: 17px;&quot;&gt;1&lt;/font&gt;&lt;/b&gt;" style="text;html=1;align=center;verticalAlign=middle;whiteSpace=wrap;rounded=0;" vertex="1" parent="1">
          <mxGeometry x="-540" y="25" width="60" height="30" as="geometry" />
        </mxCell>
        <mxCell id="GnCX_SDy-tHlvZ9ctZLE-195" value="&lt;b&gt;&lt;font style=&quot;font-size: 17px;&quot;&gt;1&lt;/font&gt;&lt;/b&gt;" style="text;html=1;align=center;verticalAlign=middle;whiteSpace=wrap;rounded=0;" vertex="1" parent="1">
          <mxGeometry x="-25" y="-7" width="60" height="30" as="geometry" />
        </mxCell>
        <mxCell id="GnCX_SDy-tHlvZ9ctZLE-196" value="&lt;b&gt;&lt;font style=&quot;font-size: 17px;&quot;&gt;1&lt;/font&gt;&lt;/b&gt;" style="text;html=1;align=center;verticalAlign=middle;whiteSpace=wrap;rounded=0;" vertex="1" parent="1">
          <mxGeometry x="-360" y="448" width="60" height="30" as="geometry" />
        </mxCell>
        <mxCell id="GnCX_SDy-tHlvZ9ctZLE-197" value="&lt;span style=&quot;font-size: 17px;&quot;&gt;&lt;b&gt;M&lt;/b&gt;&lt;/span&gt;" style="text;html=1;align=center;verticalAlign=middle;whiteSpace=wrap;rounded=0;" vertex="1" parent="1">
          <mxGeometry x="-50" y="448" width="60" height="30" as="geometry" />
        </mxCell>
        <mxCell id="GnCX_SDy-tHlvZ9ctZLE-198" value="&lt;b&gt;&lt;font style=&quot;font-size: 17px;&quot;&gt;1&lt;/font&gt;&lt;/b&gt;" style="text;html=1;align=center;verticalAlign=middle;whiteSpace=wrap;rounded=0;" vertex="1" parent="1">
          <mxGeometry x="560" y="428" width="60" height="30" as="geometry" />
        </mxCell>
        <mxCell id="GnCX_SDy-tHlvZ9ctZLE-199" value="&lt;span style=&quot;font-size: 17px;&quot;&gt;&lt;b&gt;M&lt;/b&gt;&lt;/span&gt;" style="text;html=1;align=center;verticalAlign=middle;whiteSpace=wrap;rounded=0;" vertex="1" parent="1">
          <mxGeometry x="1090" y="128" width="60" height="30" as="geometry" />
        </mxCell>
        <mxCell id="GnCX_SDy-tHlvZ9ctZLE-200" value="&lt;span style=&quot;font-size: 17px;&quot;&gt;&lt;b&gt;N&lt;/b&gt;&lt;/span&gt;" style="text;html=1;align=center;verticalAlign=middle;whiteSpace=wrap;rounded=0;" vertex="1" parent="1">
          <mxGeometry x="540" y="-127" width="60" height="30" as="geometry" />
        </mxCell>
        <mxCell id="GnCX_SDy-tHlvZ9ctZLE-201" value="&lt;span style=&quot;font-size: 17px;&quot;&gt;&lt;b&gt;M&lt;/b&gt;&lt;/span&gt;" style="text;html=1;align=center;verticalAlign=middle;whiteSpace=wrap;rounded=0;" vertex="1" parent="1">
          <mxGeometry x="510" y="428" width="60" height="30" as="geometry" />
        </mxCell>
        <mxCell id="GnCX_SDy-tHlvZ9ctZLE-202" value="&lt;span style=&quot;font-size: 17px;&quot;&gt;&lt;b&gt;M&lt;/b&gt;&lt;/span&gt;" style="text;html=1;align=center;verticalAlign=middle;whiteSpace=wrap;rounded=0;" vertex="1" parent="1">
          <mxGeometry x="550" y="508" width="60" height="30" as="geometry" />
        </mxCell>
        <mxCell id="GnCX_SDy-tHlvZ9ctZLE-203" value="&lt;b&gt;&lt;font style=&quot;font-size: 17px;&quot;&gt;1&lt;/font&gt;&lt;/b&gt;" style="text;html=1;align=center;verticalAlign=middle;whiteSpace=wrap;rounded=0;" vertex="1" parent="1">
          <mxGeometry x="530" y="878" width="60" height="30" as="geometry" />
        </mxCell>
        <mxCell id="GnCX_SDy-tHlvZ9ctZLE-204" value="&lt;b&gt;&lt;font style=&quot;font-size: 17px;&quot;&gt;1&lt;/font&gt;&lt;/b&gt;" style="text;html=1;align=center;verticalAlign=middle;whiteSpace=wrap;rounded=0;" vertex="1" parent="1">
          <mxGeometry x="620" y="438" width="60" height="30" as="geometry" />
        </mxCell>
        <mxCell id="GnCX_SDy-tHlvZ9ctZLE-205" value="&lt;b&gt;&lt;font style=&quot;font-size: 17px;&quot;&gt;1&lt;/font&gt;&lt;/b&gt;" style="text;html=1;align=center;verticalAlign=middle;whiteSpace=wrap;rounded=0;" vertex="1" parent="1">
          <mxGeometry x="610" y="488" width="60" height="30" as="geometry" />
        </mxCell>
        <mxCell id="GnCX_SDy-tHlvZ9ctZLE-206" value="&lt;span style=&quot;font-size: 17px;&quot;&gt;&lt;b&gt;M&lt;/b&gt;&lt;/span&gt;" style="text;html=1;align=center;verticalAlign=middle;whiteSpace=wrap;rounded=0;" vertex="1" parent="1">
          <mxGeometry x="1180" y="348" width="60" height="30" as="geometry" />
        </mxCell>
        <mxCell id="GnCX_SDy-tHlvZ9ctZLE-207" value="&lt;span style=&quot;font-size: 17px;&quot;&gt;&lt;b&gt;M&lt;/b&gt;&lt;/span&gt;" style="text;html=1;align=center;verticalAlign=middle;whiteSpace=wrap;rounded=0;" vertex="1" parent="1">
          <mxGeometry x="1070" y="538" width="60" height="30" as="geometry" />
        </mxCell>
        <mxCell id="GnCX_SDy-tHlvZ9ctZLE-208" value="&lt;span style=&quot;font-size: 17px;&quot;&gt;&lt;b&gt;M&lt;/b&gt;&lt;/span&gt;" style="text;html=1;align=center;verticalAlign=middle;whiteSpace=wrap;rounded=0;fillColor=#ffffff;strokeColor=#ffffff;" vertex="1" parent="1">
          <mxGeometry x="1090" y="630" width="30" height="28" as="geometry" />
        </mxCell>
        <mxCell id="GnCX_SDy-tHlvZ9ctZLE-209" value="&lt;b&gt;&lt;font style=&quot;font-size: 17px;&quot;&gt;1&lt;/font&gt;&lt;/b&gt;" style="text;html=1;align=center;verticalAlign=middle;whiteSpace=wrap;rounded=0;" vertex="1" parent="1">
          <mxGeometry x="550" y="968" width="60" height="30" as="geometry" />
        </mxCell>
        <mxCell id="GnCX_SDy-tHlvZ9ctZLE-210" value="&lt;span style=&quot;font-size: 17px;&quot;&gt;&lt;b&gt;M&lt;/b&gt;&lt;/span&gt;" style="text;html=1;align=center;verticalAlign=middle;whiteSpace=wrap;rounded=0;" vertex="1" parent="1">
          <mxGeometry x="240" y="1018" width="60" height="30" as="geometry" />
        </mxCell>
        <mxCell id="GnCX_SDy-tHlvZ9ctZLE-211" value="&lt;span style=&quot;font-size: 17px;&quot;&gt;&lt;b&gt;N&lt;/b&gt;&lt;/span&gt;" style="text;html=1;align=center;verticalAlign=middle;whiteSpace=wrap;rounded=0;" vertex="1" parent="1">
          <mxGeometry x="550" y="1128" width="60" height="30" as="geometry" />
        </mxCell>
        <mxCell id="GnCX_SDy-tHlvZ9ctZLE-212" value="&lt;b&gt;&lt;font style=&quot;font-size: 17px;&quot;&gt;1&lt;/font&gt;&lt;/b&gt;" style="text;html=1;align=center;verticalAlign=middle;whiteSpace=wrap;rounded=0;" vertex="1" parent="1">
          <mxGeometry x="610" y="1138" width="60" height="30" as="geometry" />
        </mxCell>
        <mxCell id="GnCX_SDy-tHlvZ9ctZLE-213" value="&lt;span style=&quot;font-size: 17px;&quot;&gt;&lt;b&gt;N&lt;/b&gt;&lt;/span&gt;" style="text;html=1;align=center;verticalAlign=middle;whiteSpace=wrap;rounded=0;" vertex="1" parent="1">
          <mxGeometry x="470" y="433" width="60" height="30" as="geometry" />
        </mxCell>
        <mxCell id="GnCX_SDy-tHlvZ9ctZLE-214" value="&lt;span style=&quot;font-size: 14px;&quot;&gt;Content&lt;/span&gt;" style="ellipse;whiteSpace=wrap;html=1;align=center;fillColor=#fad9d5;strokeColor=#ae4132;labelBackgroundColor=none;" vertex="1" parent="1">
          <mxGeometry x="40" y="648" width="100" height="40" as="geometry" />
        </mxCell>
        <mxCell id="GnCX_SDy-tHlvZ9ctZLE-215" style="rounded=0;orthogonalLoop=1;jettySize=auto;html=1;exitX=0.377;exitY=-0.008;exitDx=0;exitDy=0;entryX=0.5;entryY=1;entryDx=0;entryDy=0;endArrow=none;endFill=0;strokeColor=#ae4132;labelBackgroundColor=none;fontColor=default;fillColor=#fad9d5;exitPerimeter=0;" edge="1" parent="1" source="GnCX_SDy-tHlvZ9ctZLE-214" target="GnCX_SDy-tHlvZ9ctZLE-28">
          <mxGeometry relative="1" as="geometry">
            <mxPoint x="25.5" y="607.5" as="sourcePoint" />
            <mxPoint x="74.5" y="527.5" as="targetPoint" />
          </mxGeometry>
        </mxCell>
        <mxCell id="GnCX_SDy-tHlvZ9ctZLE-216" value="" style="fontSize=12;html=1;endArrow=ERzeroToMany;endFill=1;rounded=0;exitX=0.5;exitY=0;exitDx=0;exitDy=0;" edge="1" parent="1" source="GnCX_SDy-tHlvZ9ctZLE-26">
          <mxGeometry width="100" height="100" relative="1" as="geometry">
            <mxPoint x="310" y="190" as="sourcePoint" />
            <mxPoint x="120" y="60" as="targetPoint" />
            <Array as="points">
              <mxPoint x="290" y="190" />
              <mxPoint x="120" y="190" />
            </Array>
          </mxGeometry>
        </mxCell>
        <mxCell id="GnCX_SDy-tHlvZ9ctZLE-217" value="&lt;span style=&quot;font-size: 17px;&quot;&gt;&lt;b&gt;M&lt;/b&gt;&lt;/span&gt;" style="text;html=1;align=center;verticalAlign=middle;whiteSpace=wrap;rounded=0;" vertex="1" parent="1">
          <mxGeometry x="110" y="65" width="60" height="30" as="geometry" />
        </mxCell>
        <mxCell id="GnCX_SDy-tHlvZ9ctZLE-218" value="&lt;span style=&quot;font-size: 14px;&quot;&gt;Customer_id(FK)&lt;/span&gt;" style="ellipse;whiteSpace=wrap;html=1;align=center;fillColor=#fad9d5;strokeColor=#ae4132;labelBackgroundColor=none;" vertex="1" parent="1">
          <mxGeometry x="190" y="530" width="135" height="47" as="geometry" />
        </mxCell>
        <mxCell id="GnCX_SDy-tHlvZ9ctZLE-219" style="rounded=0;orthogonalLoop=1;jettySize=auto;html=1;exitX=0.241;exitY=0.112;exitDx=0;exitDy=0;entryX=0.991;entryY=0.421;entryDx=0;entryDy=0;entryPerimeter=0;endArrow=none;endFill=0;strokeColor=#ae4132;labelBackgroundColor=none;fontColor=default;fillColor=#fad9d5;exitPerimeter=0;" edge="1" parent="1" source="GnCX_SDy-tHlvZ9ctZLE-218" target="GnCX_SDy-tHlvZ9ctZLE-28">
          <mxGeometry relative="1" as="geometry">
            <mxPoint x="224" y="501.75" as="sourcePoint" />
            <mxPoint x="185" y="423.75" as="targetPoint" />
            <Array as="points">
              <mxPoint x="200" y="470" />
            </Array>
          </mxGeometry>
        </mxCell>
        <mxCell id="GnCX_SDy-tHlvZ9ctZLE-220" value="Customer_ID (FK)" style="ellipse;whiteSpace=wrap;html=1;align=center;strokeColor=#B20000;labelBackgroundColor=none;fillColor=#e51400;fontColor=#ffffff;" vertex="1" parent="1">
          <mxGeometry x="395" y="383" width="110" height="42" as="geometry" />
        </mxCell>
        <mxCell id="GnCX_SDy-tHlvZ9ctZLE-221" style="rounded=0;orthogonalLoop=1;jettySize=auto;html=1;endArrow=none;endFill=0;strokeColor=#B20000;labelBackgroundColor=none;fontColor=default;fillColor=#e51400;" edge="1" parent="1">
          <mxGeometry relative="1" as="geometry">
            <mxPoint x="470" y="420" as="targetPoint" />
            <mxPoint x="520" y="460" as="sourcePoint" />
          </mxGeometry>
        </mxCell>
        <mxCell id="GnCX_SDy-tHlvZ9ctZLE-222" value="Movie_Stars" style="ellipse;shape=doubleEllipse;margin=3;whiteSpace=wrap;html=1;align=center;fillColor=#e51400;strokeColor=#B20000;fontColor=#ffffff;" vertex="1" parent="1">
          <mxGeometry x="590" y="328" width="100" height="52" as="geometry" />
        </mxCell>
        <mxCell id="GnCX_SDy-tHlvZ9ctZLE-223" value="Has" style="shape=rhombus;double=1;perimeter=rhombusPerimeter;whiteSpace=wrap;html=1;align=center;fillColor=#17214a;fontColor=#ffffff;strokeColor=#fafafa;" vertex="1" parent="1">
          <mxGeometry x="965" y="348" width="115" height="60" as="geometry" />
        </mxCell>
        <mxCell id="GnCX_SDy-tHlvZ9ctZLE-224" value="Genre" style="shape=ext;margin=3;double=1;whiteSpace=wrap;html=1;align=center;fillColor=#e1d5e7;strokeColor=#9673a6;" vertex="1" parent="1">
          <mxGeometry x="1240" y="348" width="115" height="60" as="geometry" />
        </mxCell>
        <mxCell id="GnCX_SDy-tHlvZ9ctZLE-225" value="Duration" style="ellipse;whiteSpace=wrap;html=1;align=center;dashed=1;fillColor=#e51400;fontColor=#ffffff;strokeColor=#B20000;" vertex="1" parent="1">
          <mxGeometry x="460" y="578" width="100" height="40" as="geometry" />
        </mxCell>
        <mxCell id="GnCX_SDy-tHlvZ9ctZLE-226" value="Starting_time" style="ellipse;whiteSpace=wrap;html=1;align=center;strokeColor=#36393d;labelBackgroundColor=none;fillColor=#ffcc99;" vertex="1" parent="1">
          <mxGeometry x="1260" y="688" width="100" height="40" as="geometry" />
        </mxCell>
        <mxCell id="GnCX_SDy-tHlvZ9ctZLE-227" value="Ending_Time" style="ellipse;whiteSpace=wrap;html=1;align=center;strokeColor=#36393d;labelBackgroundColor=none;fillColor=#ffcc99;" vertex="1" parent="1">
          <mxGeometry x="1185" y="758" width="100" height="40" as="geometry" />
        </mxCell>
        <mxCell id="GnCX_SDy-tHlvZ9ctZLE-228" value="" style="endArrow=none;html=1;rounded=0;exitX=0.38;exitY=-0.026;exitDx=0;exitDy=0;exitPerimeter=0;edgeStyle=orthogonalEdgeStyle;fillColor=#ffcc99;strokeColor=#36393d;" edge="1" parent="1" source="GnCX_SDy-tHlvZ9ctZLE-227" target="GnCX_SDy-tHlvZ9ctZLE-23">
          <mxGeometry width="50" height="50" relative="1" as="geometry">
            <mxPoint x="1220" y="770" as="sourcePoint" />
            <mxPoint x="1190" y="720" as="targetPoint" />
          </mxGeometry>
        </mxCell>
        <mxCell id="GnCX_SDy-tHlvZ9ctZLE-229" value="" style="endArrow=none;html=1;rounded=0;entryX=0;entryY=0.5;entryDx=0;entryDy=0;fillColor=#ffcc99;strokeColor=#36393d;" edge="1" parent="1" target="GnCX_SDy-tHlvZ9ctZLE-226">
          <mxGeometry width="50" height="50" relative="1" as="geometry">
            <mxPoint x="1220" y="700" as="sourcePoint" />
            <mxPoint x="1270" y="650" as="targetPoint" />
          </mxGeometry>
        </mxCell>
        <mxCell id="GnCX_SDy-tHlvZ9ctZLE-231" style="rounded=0;orthogonalLoop=1;jettySize=auto;html=1;entryX=0.626;entryY=-0.035;entryDx=0;entryDy=0;endArrow=none;endFill=0;strokeColor=#6F0000;labelBackgroundColor=none;fontColor=default;fillColor=#a20025;entryPerimeter=0;edgeStyle=orthogonalEdgeStyle;exitX=0.4;exitY=1.031;exitDx=0;exitDy=0;exitPerimeter=0;" edge="1" parent="1" source="GnCX_SDy-tHlvZ9ctZLE-235" target="GnCX_SDy-tHlvZ9ctZLE-57">
          <mxGeometry relative="1" as="geometry">
            <mxPoint x="260" y="960" as="sourcePoint" />
            <mxPoint x="260" y="1008" as="targetPoint" />
          </mxGeometry>
        </mxCell>
        <mxCell id="GnCX_SDy-tHlvZ9ctZLE-232" value="Schedule_ID(FK)" style="ellipse;whiteSpace=wrap;html=1;align=center;strokeColor=#36393d;labelBackgroundColor=none;fillColor=#cdeb8b;" vertex="1" parent="1">
          <mxGeometry x="730" y="1228" width="100" height="40" as="geometry" />
        </mxCell>
        <mxCell id="GnCX_SDy-tHlvZ9ctZLE-233" value="" style="endArrow=none;html=1;rounded=0;exitX=0;exitY=0.5;exitDx=0;exitDy=0;entryX=0.9;entryY=1.05;entryDx=0;entryDy=0;entryPerimeter=0;edgeStyle=orthogonalEdgeStyle;" edge="1" parent="1" source="GnCX_SDy-tHlvZ9ctZLE-232" target="GnCX_SDy-tHlvZ9ctZLE-15">
          <mxGeometry width="50" height="50" relative="1" as="geometry">
            <mxPoint x="800" y="1210" as="sourcePoint" />
            <mxPoint x="620" y="1210" as="targetPoint" />
          </mxGeometry>
        </mxCell>
        <mxCell id="GnCX_SDy-tHlvZ9ctZLE-234" value="No_of_Seats" style="ellipse;whiteSpace=wrap;html=1;align=center;fillColor=#d80073;strokeColor=#A50040;fontColor=#ffffff;" vertex="1" parent="1">
          <mxGeometry x="685" y="938" width="90" height="50" as="geometry" />
        </mxCell>
        <mxCell id="GnCX_SDy-tHlvZ9ctZLE-235" value="Staff_Email" style="ellipse;whiteSpace=wrap;html=1;align=center;strokeColor=#6F0000;labelBackgroundColor=none;fillColor=#a20025;fontColor=#ffffff;" vertex="1" parent="1">
          <mxGeometry x="207.5" y="938" width="100" height="40" as="geometry" />
        </mxCell>
      </root>
    </mxGraphModel>
  </diagram>
</mxfile>
